<svg width="316" height="301" viewBox="0 0 316 301" fill="none" xmlns="http://www.w3.org/2000/svg">
<g clip-path="url(#clip0_110_512)">
<path d="M299.439 144.581C315.084 180.947 308.145 238.537 277.281 264.242C215.26 318.104 115.272 309.666 54.0031 259.369C-36.2967 189.907 -10.4079 18.3465 109.774 1.40625C175.526 -8.50281 211.594 35.8427 244.192 87.0886C248.349 93.6292 250.869 94.9373 257.415 101.641C271.357 115.933 291.486 126.103 299.439 144.581Z" fill="#6DB8E8"/>
<path d="M213.983 158.087L94.8818 89.3778V8.2085L213.983 76.9179V158.087Z" fill="#F6F6F6"/>
<path opacity="0.3" d="M145.677 104.617C145.547 104.421 145.383 104.225 145.219 104.127L104.57 80.6787C104.373 80.5806 104.21 80.5479 104.111 80.646C103.98 80.7114 103.915 80.8749 103.915 81.0712C103.915 81.2674 103.98 81.529 104.111 81.7252C104.242 81.9215 104.406 82.1177 104.57 82.2158L145.219 105.664C145.416 105.762 145.579 105.795 145.677 105.697C145.808 105.631 145.874 105.468 145.874 105.272C145.874 105.075 145.808 104.814 145.677 104.617Z" fill="#3F80B1"/>
<path opacity="0.3" d="M122.472 95.7549C122.342 95.5587 122.178 95.3625 122.014 95.2644L104.57 85.1918C104.373 85.0937 104.21 85.061 104.111 85.1591C104.013 85.2572 103.915 85.388 103.915 85.5842C103.915 85.7805 103.98 86.0421 104.111 86.2383C104.242 86.4345 104.406 86.6307 104.57 86.7288L122.014 96.8014C122.211 96.8995 122.374 96.9322 122.472 96.8341C122.603 96.7687 122.669 96.6052 122.669 96.409C122.669 96.1801 122.571 95.9511 122.472 95.7549Z" fill="#3F80B1"/>
<path opacity="0.3" d="M139.95 105.827C139.819 105.631 139.655 105.435 139.492 105.337L125.549 97.292C125.353 97.1938 125.189 97.1611 125.091 97.2592C124.96 97.3247 124.895 97.4882 124.895 97.6844C124.895 97.8806 124.96 98.1422 125.091 98.3385C125.222 98.5347 125.385 98.7309 125.549 98.829L139.492 106.874C139.688 106.972 139.852 107.005 139.95 106.907C140.081 106.841 140.146 106.678 140.146 106.482C140.146 106.285 140.081 106.056 139.95 105.827Z" fill="#3F80B1"/>
<path opacity="0.3" d="M164.497 119.988C164.366 119.792 164.202 119.596 164.038 119.497L143.092 107.43C142.895 107.332 142.732 107.299 142.634 107.397C142.503 107.463 142.437 107.626 142.437 107.822C142.437 108.019 142.503 108.28 142.634 108.476C142.765 108.673 142.928 108.869 143.092 108.967L164.038 121.034C164.235 121.133 164.399 121.165 164.497 121.067C164.595 120.969 164.693 120.838 164.693 120.642C164.693 120.446 164.628 120.217 164.497 119.988Z" fill="#3F80B1"/>
<path opacity="0.3" d="M135.891 41.0752C135.761 40.879 135.597 40.6828 135.433 40.5847L104.57 22.7614C104.373 22.6633 104.21 22.6306 104.111 22.7287C103.98 22.7941 103.915 22.9577 103.915 23.1539C103.915 23.3501 103.98 23.6117 104.111 23.8079C104.242 24.0042 104.406 24.2004 104.57 24.2985L135.433 42.1217C135.63 42.2198 135.793 42.2525 135.891 42.1544C135.99 42.0563 136.088 41.9255 136.088 41.7293C136.088 41.5331 136.022 41.3041 135.891 41.0752Z" fill="#3F80B1"/>
<path opacity="0.3" d="M132.095 45.1958C131.538 44.2147 130.753 43.3644 129.869 42.8412L107.024 29.6618C106.173 29.1712 105.388 29.1058 104.799 29.4329C104.242 29.7599 103.882 30.4794 103.882 31.4605C103.882 32.4743 104.242 33.5535 104.799 34.5673C105.355 35.5484 106.141 36.3986 107.024 36.9219L129.902 50.1013C130.753 50.5918 131.538 50.6572 132.128 50.3302C132.684 50.0032 133.044 49.2837 133.044 48.3026C133.044 47.2888 132.684 46.1769 132.095 45.1958Z" fill="#3F80B1"/>
<path d="M179.094 85.7804L162.566 76.2638V84.505L179.094 94.0216V85.7804Z" fill="#3F80B1"/>
<path d="M114.356 56.6746L161.584 83.9164V75.6751L114.356 48.4334V56.6746Z" fill="#3F80B1"/>
<path d="M190.222 92.1902V100.464L206.194 109.654V101.413L190.222 92.1902Z" fill="#3F80B1"/>
<path d="M189.24 91.6343L180.076 86.3364V94.6103L189.24 99.8755V91.6343Z" fill="#3F80B1"/>
<path d="M113.374 47.8774L103.882 42.3833V50.6572L113.374 56.1186V47.8774Z" fill="#3F80B1"/>
<g opacity="0.3">
<path d="M179.094 95.2317L162.566 85.715V93.9562L179.094 103.473V95.2317Z" fill="#3F80B1"/>
<path d="M114.356 66.1258L161.584 93.3676V85.1264L114.356 57.8846V66.1258Z" fill="#3F80B1"/>
<path d="M190.222 101.641V109.915L206.194 119.105V110.864L190.222 101.641Z" fill="#3F80B1"/>
<path d="M189.24 101.086L180.076 95.7876V104.062L189.24 109.327V101.086Z" fill="#3F80B1"/>
<path d="M113.374 57.3287L103.882 51.8345V60.1084L113.374 65.5699V57.3287Z" fill="#3F80B1"/>
</g>
<g opacity="0.3">
<path d="M179.094 104.683L162.566 95.1663V103.407L179.094 112.924V104.683Z" fill="#3F80B1"/>
<path d="M114.356 75.5771L161.584 102.819V94.5776L114.356 67.3359V75.5771Z" fill="#3F80B1"/>
<path d="M190.222 111.093V119.367L206.194 128.556V120.315L190.222 111.093Z" fill="#3F80B1"/>
<path d="M189.24 110.537L180.076 105.272V113.513L189.24 118.778V110.537Z" fill="#3F80B1"/>
<path d="M113.374 66.7799L103.882 61.2858V69.5597L113.374 75.0211V66.7799Z" fill="#3F80B1"/>
</g>
<path d="M109.839 49.4145C109.708 49.2182 109.544 49.022 109.381 48.9239L107.908 48.0736C107.712 47.9755 107.548 47.9428 107.45 48.0409C107.319 48.1063 107.253 48.2699 107.253 48.4661C107.253 48.6623 107.319 48.9239 107.45 49.1201C107.581 49.3164 107.744 49.5126 107.908 49.6107L109.381 50.461C109.577 50.5591 109.741 50.5918 109.839 50.4937C109.937 50.3956 110.035 50.2647 110.035 50.0685C110.035 49.8396 109.97 49.6107 109.839 49.4145Z" fill="#F6F6F6"/>
<path d="M144.336 69.3307C144.205 69.1345 144.041 68.9383 143.877 68.8402L117.89 53.8621C117.694 53.764 117.53 53.7313 117.432 53.8294C117.334 53.9276 117.236 54.0584 117.236 54.2546C117.236 54.4508 117.301 54.7124 117.432 54.9086C117.563 55.1049 117.727 55.3011 117.89 55.3992L143.877 70.3772C144.074 70.4754 144.237 70.5081 144.336 70.4099C144.434 70.3118 144.532 70.181 144.532 69.9848C144.532 69.7559 144.466 69.527 144.336 69.3307Z" fill="#F6F6F6"/>
<path d="M109.839 58.8657C109.708 58.6695 109.544 58.4733 109.381 58.3751L107.908 57.5249C107.712 57.4268 107.548 57.3941 107.45 57.4922C107.352 57.5903 107.253 57.7211 107.253 57.9173C107.253 58.1135 107.319 58.3751 107.45 58.5714C107.581 58.7676 107.744 58.9638 107.908 59.0619L109.381 59.9122C109.577 60.0103 109.741 60.043 109.839 59.9449C109.97 59.8795 110.035 59.716 110.035 59.5198C110.035 59.2908 109.97 59.0619 109.839 58.8657Z" fill="#3F80B1"/>
<path d="M138.117 75.1846C137.986 74.9883 137.822 74.7921 137.659 74.694L117.923 63.3133C117.727 63.2152 117.563 63.1825 117.465 63.2806C117.334 63.346 117.269 63.5095 117.269 63.7058C117.269 63.902 117.334 64.1636 117.465 64.3598C117.596 64.556 117.759 64.7523 117.923 64.8504L137.659 76.2311C137.855 76.3292 138.019 76.3619 138.117 76.2638C138.248 76.1984 138.313 76.0348 138.313 75.8386C138.313 75.6097 138.215 75.3808 138.117 75.1846Z" fill="#3F80B1"/>
<path d="M109.839 68.3169C109.708 68.1207 109.544 67.9245 109.381 67.8264L107.908 66.9761C107.712 66.878 107.548 66.8453 107.45 66.9434C107.352 67.0415 107.253 67.1723 107.253 67.3685C107.253 67.5648 107.319 67.8264 107.45 68.0226C107.581 68.2188 107.744 68.415 107.908 68.5131L109.381 69.3634C109.577 69.4615 109.741 69.4942 109.839 69.3961C109.937 69.298 110.035 69.1672 110.035 68.971C110.035 68.7748 109.97 68.5131 109.839 68.3169Z" fill="#3F80B1"/>
<path d="M152.649 93.0078C152.518 92.8116 152.354 92.6154 152.191 92.5173L117.923 72.7645C117.727 72.6664 117.563 72.6337 117.465 72.7318C117.334 72.7973 117.269 72.9608 117.269 73.157C117.269 73.3532 117.334 73.6148 117.465 73.8111C117.596 74.0073 117.759 74.2035 117.923 74.3016L152.191 94.0543C152.387 94.1524 152.551 94.1851 152.649 94.087C152.78 94.0216 152.845 93.8581 152.845 93.6619C152.845 93.433 152.747 93.204 152.649 93.0078Z" fill="#3F80B1"/>
<path opacity="0.2" d="M151.994 155.144C151.34 155.144 150.619 154.915 149.867 154.49L72.2986 109.752C70.924 108.967 69.6476 107.593 68.6657 105.926C67.6838 104.225 67.1602 102.426 67.1602 100.857V39.7998C67.1602 38.3281 67.6184 37.2489 68.4693 36.7911C68.7966 36.5949 69.1894 36.4968 69.6148 36.4968C70.2694 36.4968 70.9895 36.7257 71.7422 37.1508L149.278 81.8888C150.652 82.6736 151.929 84.0472 152.911 85.715C153.892 87.4156 154.416 89.2143 154.416 90.784V151.841C154.416 153.312 153.958 154.392 153.107 154.85C152.78 155.046 152.42 155.144 151.994 155.144Z" fill="black"/>
<path opacity="0.2" d="M264.681 161.913C263.404 159.69 261.637 157.76 259.673 156.616L180.763 111.125C178.799 109.981 177.032 109.883 175.756 110.635C174.479 111.387 173.661 112.957 173.661 115.213V206.259C173.661 208.515 174.446 211.034 175.756 213.257C177.032 215.481 178.799 217.411 180.763 218.555L259.673 264.078C261.637 265.223 263.404 265.321 264.681 264.569C265.957 263.817 266.775 262.247 266.775 259.99V168.945C266.743 166.655 265.957 164.137 264.681 161.913Z" fill="black"/>
<path d="M106.141 106.056L104.7 105.239C104.7 106.056 104.144 106.383 103.424 105.991C102.704 105.599 102.148 104.585 102.148 103.767L100.707 102.95C100.707 103.767 100.151 104.094 99.431 103.702C98.711 103.309 98.1546 102.296 98.1546 101.478L96.7145 100.66C96.7145 101.478 96.1254 101.805 95.4381 101.413C94.718 101.02 94.1616 100.006 94.1616 99.1888L92.7216 98.3712C92.7216 99.1888 92.1324 99.5158 91.4451 99.1234C90.7251 98.7309 90.1687 97.7171 90.1687 96.8996L88.7286 96.082C88.7286 96.8996 88.1395 97.2266 87.4522 96.8342C86.7321 96.4417 86.1757 95.4279 86.1757 94.6103L84.7356 93.7928C84.7356 94.6103 84.1465 94.9374 83.4592 94.5449C82.7392 94.1525 82.1828 93.1387 82.1828 92.3211L80.7427 91.5035C80.7427 92.3211 80.1863 92.6482 79.4663 92.2557C78.7462 91.8633 78.1898 90.8495 78.1898 90.0319L76.7497 89.2143C76.7497 90.0319 76.1933 90.3589 75.4733 89.9665C74.7533 89.5741 74.1969 88.5603 74.1969 87.7427L72.7568 86.9251C72.7568 87.7427 72.1676 88.0697 71.4803 87.6773C70.7603 87.2848 70.2039 86.271 70.2039 85.4535L68.7638 84.6359C68.7638 85.4535 68.1747 85.7805 67.4874 85.3881C66.7673 84.9956 66.2109 83.9818 66.2109 83.1642L64.7709 82.3467C64.7709 83.1642 64.2145 83.4913 63.4944 83.0988C62.7744 82.7064 62.218 81.6926 62.218 80.875L60.7779 80.0574C60.7779 80.875 60.2215 81.2021 59.5015 80.8096C58.7814 80.4172 58.225 79.4034 58.225 78.5858L56.7849 77.7682C56.7849 78.5858 56.1958 78.9128 55.5085 78.5204C54.7885 78.128 54.2321 77.1142 54.2321 76.2966L52.792 75.479C52.792 76.2966 52.2029 76.6236 51.5155 76.2312C50.7955 75.8387 50.2391 74.8249 50.2391 74.0074L48.8972 73.2225V81.4964L106.173 114.527V106.056H106.141Z" fill="#E1E8EC"/>
<path d="M106.141 112.924L48.8645 79.8939V199.588C48.8645 203.512 47.4899 207.861 45.2643 211.72C43.0387 215.579 39.9622 218.948 36.5584 220.91C33.1545 222.872 30.078 223.068 27.8524 221.76L85.1284 254.79C87.354 256.066 90.4306 255.902 93.8344 253.94C97.2382 251.978 100.315 248.61 102.54 244.751C104.766 240.892 106.141 236.542 106.141 232.618V112.924Z" fill="#E1E8EC"/>
<path opacity="0.5" d="M48.8318 199.588C48.8318 203.512 47.4572 207.861 45.2316 211.72L102.508 244.751C104.733 240.892 106.108 236.542 106.108 232.618L48.8318 199.588Z" fill="#EEF5F9"/>
<path d="M45.2316 211.72C43.006 215.579 39.9295 218.948 36.5257 220.91C33.1218 222.872 30.0453 223.068 27.8197 221.76L85.0957 254.79C87.3213 256.066 90.3979 255.902 93.8017 253.94C97.2055 251.978 100.282 248.61 102.508 244.751L45.2316 211.72Z" fill="#EEF5F9"/>
<path d="M81.4628 246.844L24.1868 213.813C24.1868 217.738 25.5614 220.485 27.787 221.793L85.063 254.823C82.8701 253.515 81.4628 250.768 81.4628 246.844Z" fill="#BBC2C6"/>
<g opacity="0.5">
<path d="M53.2829 120.74L52.7593 120.446V106.089L53.2829 106.383V120.74Z" fill="#2A71C9"/>
<path d="M60.0251 124.632L59.5015 124.305V109.981L60.0251 110.275V124.632Z" fill="#2A71C9"/>
<path d="M67.1929 128.752L66.6692 128.458V114.101L67.1929 114.396V128.752Z" fill="#2A71C9"/>
<path d="M65.2618 127.641L64.7709 127.346V112.99L65.2618 113.284V127.641Z" fill="#2A71C9"/>
<path d="M66.2436 128.197L65.72 127.902V113.546L66.2436 113.84V128.197Z" fill="#2A71C9"/>
<path d="M70.7604 130.813L70.2367 130.518V116.162L70.7604 116.456V130.813Z" fill="#2A71C9"/>
<path d="M80.4154 136.372L79.8917 136.078V121.721L80.4154 122.016V136.372Z" fill="#2A71C9"/>
<path d="M82.1828 137.419L81.6592 137.092V122.768L82.1828 123.062V137.419Z" fill="#2A71C9"/>
<path d="M83.9829 138.465L83.4592 138.138V123.782L83.9829 124.109V138.465Z" fill="#2A71C9"/>
<path d="M85.1938 139.152L84.7029 138.858V124.501L85.1938 124.795V139.152Z" fill="#2A71C9"/>
<path d="M92.427 143.305L91.9033 143.011V128.654L92.427 128.981V143.305Z" fill="#2A71C9"/>
<path d="M94.6199 144.581L94.0962 144.286V129.93L94.6199 130.224V144.581Z" fill="#2A71C9"/>
<path d="M97.7947 146.412L97.271 146.118V131.761L97.7947 132.055V146.412Z" fill="#2A71C9"/>
<path d="M101.657 148.636L101.133 148.342V133.985L101.657 134.279V148.636Z" fill="#2A71C9"/>
<path d="M61.3343 125.384L60.6143 124.959V110.635L61.3343 111.027V125.384Z" fill="#2A71C9"/>
<path d="M55.8686 122.212L54.854 121.656V107.299L55.8686 107.855V122.212Z" fill="#2A71C9"/>
<path d="M64.28 127.085L63.2981 126.529V112.172L64.28 112.728V127.085Z" fill="#2A71C9"/>
<path d="M69.4838 130.093L68.502 129.505V115.148L69.4838 115.737V130.093Z" fill="#2A71C9"/>
<path d="M99.9219 147.622L98.9073 147.066V132.71L99.9219 133.266V147.622Z" fill="#2A71C9"/>
<path d="M76.2261 133.985L75.2443 133.396V119.04L76.2261 119.628V133.985Z" fill="#2A71C9"/>
<path d="M77.6989 134.835L76.717 134.247V119.89L77.6989 120.479V134.835Z" fill="#2A71C9"/>
<path d="M79.5317 135.882L78.1244 135.064V120.707L79.5317 121.525V135.882Z" fill="#2A71C9"/>
<path d="M88.0413 140.787L86.6339 139.97V125.613L88.0413 126.431V140.787Z" fill="#2A71C9"/>
<path d="M91.3142 142.651L89.9069 141.866V127.51L91.3142 128.327V142.651Z" fill="#2A71C9"/>
<path d="M54.003 121.133L53.7412 121.002V106.645L54.003 106.776V121.133Z" fill="#2A71C9"/>
<path d="M58.3887 123.683L58.1268 123.52V109.163L58.3887 109.327V123.683Z" fill="#2A71C9"/>
<path d="M57.3741 123.095L57.1123 122.931V108.607L57.3741 108.738V123.095Z" fill="#2A71C9"/>
<path d="M56.7849 122.768L56.5231 122.604V108.248L56.7849 108.411V122.768Z" fill="#2A71C9"/>
<path d="M62.3489 125.94L62.087 125.809V111.452L62.3489 111.616V125.94Z" fill="#2A71C9"/>
<path d="M67.782 129.112L67.5201 128.949V114.592L67.782 114.756V129.112Z" fill="#2A71C9"/>
<path d="M71.4476 131.205L71.1858 131.074V116.718L71.4476 116.849V131.205Z" fill="#2A71C9"/>
<path d="M72.9204 132.055L72.6913 131.925V117.568L72.9204 117.732V132.055Z" fill="#2A71C9"/>
<path d="M73.5424 132.415L73.2805 132.252V117.895L73.5424 118.059V132.415Z" fill="#2A71C9"/>
<path d="M74.0659 132.71L73.8041 132.579V118.222L74.0659 118.353V132.71Z" fill="#2A71C9"/>
<path d="M81.1028 136.797L80.8409 136.634V122.277L81.1028 122.441V136.797Z" fill="#2A71C9"/>
<path d="M85.8157 139.512L85.5538 139.348V124.992L85.8157 125.155V139.512Z" fill="#2A71C9"/>
<path d="M88.6959 141.147L88.4341 141.016V126.659L88.6959 126.79V141.147Z" fill="#2A71C9"/>
<path d="M89.5469 141.67L89.3177 141.507V127.15L89.5469 127.314V141.67Z" fill="#2A71C9"/>
<path d="M93.2452 143.796L92.9834 143.632V129.276L93.2452 129.439V143.796Z" fill="#2A71C9"/>
<path d="M95.4054 145.039L95.1436 144.875V130.518L95.4054 130.682V145.039Z" fill="#2A71C9"/>
<path d="M100.577 148.015L100.315 147.851V133.527L100.577 133.658V148.015Z" fill="#2A71C9"/>
<path d="M92.0998 155.373C91.8707 154.98 91.5434 154.621 91.1834 154.424L64.7382 139.185C64.3782 138.989 64.0836 138.956 63.8218 139.087C63.5927 139.217 63.4618 139.512 63.4618 139.904C63.4618 140.297 63.5927 140.755 63.8218 141.147C64.0509 141.539 64.3782 141.899 64.7382 142.095L91.1834 157.335C91.5434 157.531 91.838 157.564 92.0998 157.433C92.3289 157.302 92.4598 157.008 92.4598 156.616C92.4598 156.223 92.3289 155.798 92.0998 155.373Z" fill="#2A71C9"/>
<path d="M93.1144 120.119C92.8853 119.726 92.558 119.367 92.198 119.17L62.1854 101.87C61.8253 101.674 61.5308 101.642 61.269 101.772C61.0398 101.903 60.9089 102.197 60.9089 102.59C60.9089 102.982 61.0398 103.44 61.269 103.833C61.4981 104.225 61.8253 104.585 62.1854 104.781L92.198 122.081C92.558 122.277 92.8526 122.31 93.1144 122.179C93.3435 122.048 93.4744 121.754 93.4744 121.362C93.4744 120.969 93.3435 120.511 93.1144 120.119Z" fill="#2A71C9"/>
<path d="M53.7739 174.57L53.6757 174.7L53.283 174.177L53.3157 174.733L53.1193 174.635L53.1521 174.112L52.7593 174.177L52.6611 173.948H53.0866L52.6611 173.458L52.7593 173.327L53.1521 173.85L53.1193 173.294L53.3157 173.392L53.283 173.916L53.6757 173.85L53.7739 174.112H53.3484L53.7739 174.57Z" fill="#2A71C9"/>
<path d="M55.3123 175.453L55.2141 175.583L54.8213 175.06L54.854 175.616L54.6577 175.518L54.6904 174.995L54.2976 175.06L54.1995 174.831H54.6249L54.1995 174.341L54.2976 174.21L54.6904 174.733L54.6577 174.177L54.854 174.275L54.8213 174.799L55.2141 174.733L55.3123 174.995H54.8868L55.3123 175.453Z" fill="#2A71C9"/>
<path d="M56.8505 176.336L56.7523 176.466L56.3595 175.943L56.3923 176.499L56.1959 176.401L56.2286 175.878L55.8359 175.943L55.7377 175.714H56.1632L55.7377 175.224L55.8359 175.093L56.2286 175.616L56.1959 175.06L56.3923 175.158L56.3595 175.682L56.7523 175.616L56.8505 175.878H56.425L56.8505 176.336Z" fill="#2A71C9"/>
<path d="M58.3888 177.219L58.2906 177.349L57.8979 176.826L57.9306 177.382L57.7342 177.284L57.7669 176.761L57.3742 176.826L57.276 176.597H57.7015L57.276 176.107L57.3742 175.976L57.7669 176.499L57.7342 175.943L57.9306 176.041L57.8979 176.565L58.2906 176.499L58.3888 176.761H57.9633L58.3888 177.219Z" fill="#2A71C9"/>
<path d="M59.927 178.102L59.8288 178.232L59.4361 177.709L59.4688 178.265L59.2724 178.167L59.3051 177.644L58.9124 177.709L58.8142 177.48H59.2397L58.8142 176.99L58.9124 176.859L59.3051 177.382L59.2724 176.826L59.4688 176.924L59.4361 177.447L59.8288 177.382L59.927 177.644H59.5015L59.927 178.102Z" fill="#2A71C9"/>
<path d="M61.4653 178.985L61.3671 179.115L60.9744 178.592L61.0071 179.148L60.8108 179.05L60.8435 178.527L60.4507 178.592L60.3525 178.363H60.778L60.3525 177.873L60.4507 177.742L60.8435 178.265L60.8108 177.709L61.0071 177.807L60.9744 178.33L61.3671 178.265L61.4653 178.527H61.0399L61.4653 178.985Z" fill="#2A71C9"/>
<path d="M63.0035 179.9L62.9053 180.031L62.5126 179.508L62.5453 180.064L62.349 179.966L62.3817 179.442L61.9889 179.508L61.8907 179.279H62.3162L61.8907 178.788L61.9889 178.657L62.3817 179.181L62.349 178.625L62.5453 178.723L62.5126 179.246L62.9053 179.181L63.0035 179.442H62.5781L63.0035 179.9Z" fill="#2A71C9"/>
<path d="M64.5419 180.783L64.4437 180.914L64.0509 180.391L64.0837 180.947L63.8873 180.849L63.92 180.325L63.5273 180.391L63.4291 180.162H63.8546L63.4291 179.671L63.5273 179.54L63.92 180.064L63.8873 179.508L64.0837 179.606L64.0509 180.129L64.4437 180.064L64.5419 180.325H64.1164L64.5419 180.783Z" fill="#2A71C9"/>
<path d="M66.0801 181.666L65.9819 181.797L65.5891 181.274L65.6219 181.83L65.4255 181.732L65.4582 181.208L65.0655 181.274L64.9673 181.045H65.3928L64.9673 180.554L65.0655 180.423L65.4582 180.947L65.4255 180.391L65.6219 180.489L65.5891 181.012L65.9819 180.947L66.0801 181.208H65.6546L66.0801 181.666Z" fill="#2A71C9"/>
<path d="M67.6184 182.549L67.5202 182.68L67.1275 182.157L67.1602 182.713L66.9638 182.615L66.9966 182.091L66.6038 182.157L66.5056 181.928H66.9311L66.5056 181.437L66.6038 181.306L66.9966 181.83L66.9638 181.274L67.1602 181.372L67.1275 181.895L67.5202 181.83L67.6184 182.091H67.1929L67.6184 182.549Z" fill="#2A71C9"/>
<path d="M69.1566 183.432L69.0584 183.563L68.6657 183.04L68.6984 183.596L68.502 183.498L68.5347 182.974L68.142 183.04L68.0765 182.811H68.502L68.0765 182.32L68.1747 182.189L68.5675 182.713L68.5347 182.157L68.7311 182.255L68.6984 182.778L69.0911 182.713L69.1893 182.974H68.7639L69.1566 183.432Z" fill="#2A71C9"/>
<path d="M70.6949 184.315L70.5968 184.446L70.204 183.923L70.2367 184.479L70.0404 184.381L70.0731 183.857L69.6803 183.923L69.5822 183.694H70.0076L69.5822 183.203L69.6803 183.072L70.0731 183.596L70.0404 183.04L70.2367 183.138L70.204 183.661L70.5968 183.596L70.6949 183.857H70.2695L70.6949 184.315Z" fill="#2A71C9"/>
<path d="M72.2332 185.231L72.135 185.362L71.7422 184.838L71.7749 185.394L71.5786 185.296L71.6113 184.773L71.2185 184.838L71.1204 184.609H71.5458L71.1204 184.119L71.2185 183.988L71.6113 184.511L71.5786 183.955L71.7749 184.054L71.7422 184.577L72.135 184.511L72.2332 184.773H71.8077L72.2332 185.231Z" fill="#2A71C9"/>
<path d="M73.7715 186.114L73.6733 186.245L73.2805 185.721L73.3133 186.277L73.1169 186.179L73.1496 185.656L72.7569 185.721L72.6587 185.492H73.0842L72.6587 185.002L72.7569 184.871L73.1496 185.394L73.1169 184.838L73.3133 184.937L73.2805 185.46L73.6733 185.394L73.7715 185.656H73.346L73.7715 186.114Z" fill="#2A71C9"/>
<path d="M75.3097 186.997L75.2115 187.128L74.8188 186.604L74.8515 187.16L74.6551 187.062L74.6878 186.539L74.2951 186.604L74.1969 186.375H74.6224L74.1969 185.885L74.2951 185.754L74.6878 186.277L74.6551 185.721L74.8515 185.82L74.8188 186.343L75.2115 186.277L75.3097 186.539H74.8842L75.3097 186.997Z" fill="#2A71C9"/>
<path d="M76.848 187.88L76.7498 188.011L76.3571 187.487L76.3898 188.043L76.1934 187.945L76.2262 187.422L75.8334 187.487L75.7352 187.258H76.1607L75.7352 186.768L75.8334 186.637L76.2262 187.16L76.1934 186.604L76.3898 186.702L76.3571 187.226L76.7498 187.16L76.848 187.422H76.4225L76.848 187.88Z" fill="#2A71C9"/>
<path d="M78.3862 188.763L78.288 188.894L77.8953 188.37L77.928 188.926L77.7316 188.828L77.7644 188.305L77.3716 188.37L77.2734 188.141H77.6989L77.2734 187.651L77.3716 187.52L77.7644 188.043L77.7316 187.487L77.928 187.585L77.8953 188.109L78.288 188.043L78.3862 188.305H77.9607L78.3862 188.763Z" fill="#2A71C9"/>
<path d="M79.9246 189.646L79.8264 189.777L79.4336 189.253L79.4664 189.809L79.27 189.711L79.3027 189.188L78.91 189.253L78.8118 189.024H79.2372L78.8118 188.534L78.91 188.403L79.3027 188.926L79.27 188.37L79.4664 188.468L79.4336 188.992L79.8264 188.926L79.9246 189.188H79.4991L79.9246 189.646Z" fill="#2A71C9"/>
<path d="M81.4628 190.561L81.3646 190.692L80.9718 190.169L81.0046 190.725L80.8082 190.627L80.8409 190.104L80.4482 190.169L80.35 189.94H80.7755L80.35 189.45L80.4482 189.319L80.8409 189.842L80.8082 189.286L81.0046 189.384L80.9718 189.907L81.3646 189.842L81.4628 190.104H81.0373L81.4628 190.561Z" fill="#2A71C9"/>
<path d="M83.0338 191.444L82.9356 191.575L82.5429 191.052L82.5756 191.608L82.3792 191.51L82.412 190.987L82.0192 191.052L81.921 190.823H82.3465L81.921 190.333L82.0192 190.202L82.412 190.725L82.3792 190.169L82.5756 190.267L82.5429 190.79L82.9356 190.725L83.0338 190.987H82.6083L83.0338 191.444Z" fill="#2A71C9"/>
<path d="M84.572 192.327L84.4738 192.458L84.0811 191.935L84.1138 192.491L83.9174 192.393L83.9502 191.87L83.5574 191.935L83.4592 191.706H83.8847L83.4592 191.216L83.5574 191.085L83.9502 191.608L83.9174 191.052L84.1138 191.15L84.0811 191.673L84.4738 191.608L84.572 191.87H84.1465L84.572 192.327Z" fill="#2A71C9"/>
<path d="M86.1103 193.21L86.0122 193.341L85.6194 192.818L85.6521 193.374L85.4558 193.276L85.4885 192.753L85.0957 192.818L84.9976 192.589H85.423L84.9976 192.099L85.0957 191.968L85.4885 192.491L85.4558 191.935L85.6521 192.033L85.6194 192.556L86.0122 192.491L86.1103 192.753H85.6849L86.1103 193.21Z" fill="#2A71C9"/>
<path d="M87.6486 194.093L87.5504 194.224L87.1576 193.701L87.1903 194.257L86.994 194.159L87.0267 193.636L86.634 193.701L86.5358 193.472H86.9613L86.5358 192.981L86.634 192.851L87.0267 193.374L86.994 192.818L87.1903 192.916L87.1576 193.439L87.5504 193.374L87.6486 193.636H87.2231L87.6486 194.093Z" fill="#2A71C9"/>
<path d="M89.1869 194.976L89.0887 195.107L88.6959 194.584L88.7287 195.14L88.5323 195.042L88.565 194.519L88.1723 194.584L88.0741 194.355H88.4996L88.0741 193.864L88.1723 193.734L88.565 194.257L88.5323 193.701L88.7287 193.799L88.6959 194.322L89.0887 194.257L89.1869 194.519H88.7614L89.1869 194.976Z" fill="#2A71C9"/>
<path d="M90.7251 195.892L90.6269 196.023L90.2342 195.5L90.2669 196.056L90.0705 195.957L90.1032 195.434L89.7105 195.5L89.6123 195.271H90.0378L89.6123 194.78L89.7105 194.649L90.1032 195.173L90.0705 194.617L90.2669 194.715L90.2342 195.238L90.6269 195.173L90.7251 195.434H90.2996L90.7251 195.892Z" fill="#2A71C9"/>
<path d="M92.2634 196.775L92.1652 196.906L91.7725 196.383L91.8052 196.939L91.6088 196.84L91.6416 196.317L91.2488 196.383L91.1506 196.154H91.5761L91.1506 195.663L91.2488 195.532L91.6416 196.056L91.6088 195.5L91.8052 195.598L91.7725 196.121L92.1652 196.056L92.2634 196.317H91.8379L92.2634 196.775Z" fill="#2A71C9"/>
<path d="M93.8016 197.658L93.7034 197.789L93.3107 197.266L93.3434 197.822L93.147 197.723L93.1798 197.2L92.787 197.266L92.6888 197.037H93.1143L92.6888 196.546L92.787 196.415L93.1798 196.939L93.147 196.383L93.3434 196.481L93.3107 197.004L93.7034 196.939L93.8016 197.2H93.3761L93.8016 197.658Z" fill="#2A71C9"/>
<path d="M95.34 198.541L95.2418 198.672L94.849 198.149L94.8818 198.705L94.6854 198.606L94.7181 198.083L94.3254 198.149L94.2272 197.92H94.6527L94.2272 197.429L94.3254 197.298L94.7181 197.822L94.6854 197.266L94.8818 197.364L94.849 197.887L95.2418 197.822L95.34 198.083H94.9145L95.34 198.541Z" fill="#2A71C9"/>
<path d="M96.8782 199.424L96.78 199.555L96.3872 199.032L96.42 199.588L96.2236 199.489L96.2563 198.966L95.8636 199.032L95.7654 198.803H96.1909L95.7654 198.312L95.8636 198.181L96.2563 198.705L96.2236 198.149L96.42 198.247L96.3872 198.77L96.78 198.705L96.8782 198.966H96.4527L96.8782 199.424Z" fill="#2A71C9"/>
<path d="M98.4165 200.307L98.3183 200.438L97.9256 199.915L97.9583 200.471L97.7619 200.372L97.7946 199.849L97.4019 199.915L97.3037 199.686H97.7292L97.3037 199.195L97.4019 199.064L97.7946 199.588L97.7619 199.032L97.9583 199.13L97.9256 199.653L98.3183 199.588L98.4165 199.849H97.991L98.4165 200.307Z" fill="#2A71C9"/>
<path d="M99.9547 201.223L99.8565 201.353L99.4638 200.83L99.4965 201.386L99.3001 201.288L99.3329 200.765L98.9401 200.83L98.8419 200.601H99.2674L98.8419 200.111L98.9401 199.98L99.3329 200.503L99.3001 199.947L99.4965 200.045L99.4638 200.569L99.8565 200.503L99.9547 200.765H99.5292L99.9547 201.223Z" fill="#2A71C9"/>
<path d="M101.493 202.106L101.395 202.236L101.002 201.713L101.035 202.269L100.838 202.171L100.871 201.648L100.478 201.713L100.38 201.484H100.806L100.38 200.994L100.478 200.863L100.871 201.386L100.838 200.83L101.035 200.928L101.002 201.452L101.395 201.386L101.493 201.648H101.068L101.493 202.106Z" fill="#2A71C9"/>
<path d="M53.7739 194.159L53.6757 194.29L53.283 193.766L53.3157 194.322L53.1193 194.224L53.1521 193.701L52.7593 193.766L52.6611 193.537H53.0866L52.6611 193.047L52.7593 192.916L53.1521 193.439L53.1193 192.883L53.3157 192.981L53.283 193.505L53.6757 193.439L53.7739 193.701H53.3484L53.7739 194.159Z" fill="#2A71C9"/>
<path d="M55.3123 195.075L55.2141 195.205L54.8213 194.682L54.854 195.238L54.6577 195.14L54.6904 194.617L54.2976 194.682L54.1995 194.453H54.6249L54.1995 193.963L54.2976 193.832L54.6904 194.355L54.6577 193.799L54.854 193.897L54.8213 194.42L55.2141 194.355L55.3123 194.617H54.8868L55.3123 195.075Z" fill="#2A71C9"/>
<path d="M56.8505 195.957L56.7523 196.088L56.3595 195.565L56.3923 196.121L56.1959 196.023L56.2286 195.5L55.8359 195.565L55.7377 195.336H56.1632L55.7377 194.846L55.8359 194.715L56.2286 195.238L56.1959 194.682L56.3923 194.78L56.3595 195.303L56.7523 195.238L56.8505 195.5H56.425L56.8505 195.957Z" fill="#2A71C9"/>
<path d="M58.3888 196.84L58.2906 196.971L57.8979 196.448L57.9306 197.004L57.7342 196.906L57.7669 196.383L57.3742 196.448L57.276 196.219H57.7015L57.276 195.729L57.3742 195.598L57.7669 196.121L57.7342 195.565L57.9306 195.663L57.8979 196.186L58.2906 196.121L58.3888 196.383H57.9633L58.3888 196.84Z" fill="#2A71C9"/>
<path d="M59.927 197.723L59.8288 197.854L59.4361 197.331L59.4688 197.887L59.2724 197.789L59.3051 197.266L58.9124 197.331L58.8142 197.102H59.2397L58.8142 196.612L58.9124 196.481L59.3051 197.004L59.2724 196.448L59.4688 196.546L59.4361 197.069L59.8288 197.004L59.927 197.266H59.5015L59.927 197.723Z" fill="#2A71C9"/>
<path d="M61.4653 198.606L61.3671 198.737L60.9744 198.214L61.0071 198.77L60.8108 198.672L60.8435 198.149L60.4507 198.214L60.3525 197.985H60.778L60.3525 197.495L60.4507 197.364L60.8435 197.887L60.8108 197.331L61.0071 197.429L60.9744 197.952L61.3671 197.887L61.4653 198.149H61.0399L61.4653 198.606Z" fill="#2A71C9"/>
<path d="M63.0035 199.489L62.9053 199.62L62.5126 199.097L62.5453 199.653L62.349 199.555L62.3817 199.032L61.9889 199.097L61.8907 198.868H62.3162L61.8907 198.378L61.9889 198.247L62.3817 198.77L62.349 198.214L62.5453 198.312L62.5126 198.835L62.9053 198.77L63.0035 199.032H62.5781L63.0035 199.489Z" fill="#2A71C9"/>
<path d="M64.5419 200.405L64.4437 200.536L64.0509 200.013L64.0837 200.569L63.8873 200.471L63.92 199.947L63.5273 200.013L63.4291 199.784H63.8546L63.4291 199.293L63.5273 199.162L63.92 199.686L63.8873 199.13L64.0837 199.228L64.0509 199.751L64.4437 199.686L64.5419 199.947H64.1164L64.5419 200.405Z" fill="#2A71C9"/>
<path d="M66.0801 201.288L65.9819 201.419L65.5891 200.896L65.6219 201.452L65.4255 201.354L65.4582 200.83L65.0655 200.896L64.9673 200.667H65.3928L64.9673 200.176L65.0655 200.045L65.4582 200.569L65.4255 200.013L65.6219 200.111L65.5891 200.634L65.9819 200.569L66.0801 200.83H65.6546L66.0801 201.288Z" fill="#2A71C9"/>
<path d="M67.6184 202.171L67.5202 202.302L67.1275 201.779L67.1602 202.335L66.9638 202.237L66.9966 201.713L66.6038 201.779L66.5056 201.55H66.9311L66.5056 201.059L66.6038 200.928L66.9966 201.452L66.9638 200.896L67.1602 200.994L67.1275 201.517L67.5202 201.452L67.6184 201.713H67.1929L67.6184 202.171Z" fill="#2A71C9"/>
<path d="M69.1566 203.054L69.0584 203.185L68.6657 202.662L68.6984 203.218L68.502 203.119L68.5347 202.596L68.142 202.662L68.0765 202.433H68.502L68.0765 201.942L68.1747 201.811L68.5675 202.335L68.5347 201.779L68.7311 201.877L68.6984 202.4L69.0911 202.335L69.1893 202.596H68.7639L69.1566 203.054Z" fill="#2A71C9"/>
<path d="M70.6949 203.937L70.5968 204.068L70.204 203.545L70.2367 204.101L70.0404 204.002L70.0731 203.479L69.6803 203.545L69.5822 203.316H70.0076L69.5822 202.825L69.6803 202.694L70.0731 203.218L70.0404 202.662L70.2367 202.76L70.204 203.283L70.5968 203.218L70.6949 203.479H70.2695L70.6949 203.937Z" fill="#2A71C9"/>
<path d="M72.2332 204.82L72.135 204.951L71.7422 204.428L71.7749 204.984L71.5786 204.885L71.6113 204.362L71.2185 204.428L71.1204 204.199H71.5458L71.1204 203.708L71.2185 203.577L71.6113 204.101L71.5786 203.545L71.7749 203.643L71.7422 204.166L72.135 204.101L72.2332 204.362H71.8077L72.2332 204.82Z" fill="#2A71C9"/>
<path d="M73.7715 205.736L73.6733 205.867L73.2805 205.343L73.3133 205.899L73.1169 205.801L73.1496 205.278L72.7569 205.343L72.6587 205.114H73.0842L72.6587 204.624L72.7569 204.493L73.1496 205.016L73.1169 204.46L73.3133 204.558L73.2805 205.082L73.6733 205.016L73.7715 205.278H73.346L73.7715 205.736Z" fill="#2A71C9"/>
<path d="M75.3097 206.619L75.2115 206.75L74.8188 206.226L74.8515 206.782L74.6551 206.684L74.6878 206.161L74.2951 206.226L74.1969 205.997H74.6224L74.1969 205.507L74.2951 205.376L74.6878 205.899L74.6551 205.343L74.8515 205.441L74.8188 205.965L75.2115 205.899L75.3097 206.161H74.8842L75.3097 206.619Z" fill="#2A71C9"/>
<path d="M76.848 207.502L76.7498 207.633L76.3571 207.109L76.3898 207.665L76.1934 207.567L76.2262 207.044L75.8334 207.109L75.7352 206.88H76.1607L75.7352 206.39L75.8334 206.259L76.2262 206.782L76.1934 206.226L76.3898 206.324L76.3571 206.848L76.7498 206.782L76.848 207.044H76.4225L76.848 207.502Z" fill="#2A71C9"/>
<path d="M78.3862 208.385L78.288 208.516L77.8953 207.992L77.928 208.548L77.7316 208.45L77.7644 207.927L77.3716 207.992L77.2734 207.763H77.6989L77.2734 207.273L77.3716 207.142L77.7644 207.665L77.7316 207.109L77.928 207.207L77.8953 207.731L78.288 207.665L78.3862 207.927H77.9607L78.3862 208.385Z" fill="#2A71C9"/>
<path d="M79.9246 209.268L79.8264 209.398L79.4336 208.875L79.4664 209.431L79.27 209.333L79.3027 208.81L78.91 208.875L78.8118 208.646H79.2372L78.8118 208.156L78.91 208.025L79.3027 208.548L79.27 207.992L79.4664 208.09L79.4336 208.614L79.8264 208.548L79.9246 208.81H79.4991L79.9246 209.268Z" fill="#2A71C9"/>
<path d="M81.4628 210.151L81.3646 210.281L80.9718 209.758L81.0046 210.314L80.8082 210.216L80.8409 209.693L80.4482 209.758L80.35 209.529H80.7755L80.35 209.039L80.4482 208.908L80.8409 209.431L80.8082 208.875L81.0046 208.973L80.9718 209.497L81.3646 209.431L81.4628 209.693H81.0373L81.4628 210.151Z" fill="#2A71C9"/>
<path d="M83.0338 211.066L82.9356 211.197L82.5429 210.674L82.5756 211.23L82.3792 211.132L82.412 210.609L82.0192 210.674L81.921 210.445H82.3465L81.921 209.954L82.0192 209.824L82.412 210.347L82.3792 209.791L82.5756 209.889L82.5429 210.412L82.9356 210.347L83.0338 210.609H82.6083L83.0338 211.066Z" fill="#2A71C9"/>
<path d="M84.572 211.949L84.4738 212.08L84.0811 211.557L84.1138 212.113L83.9174 212.015L83.9502 211.491L83.5574 211.557L83.4592 211.328H83.8847L83.4592 210.837L83.5574 210.707L83.9502 211.23L83.9174 210.674L84.1138 210.772L84.0811 211.295L84.4738 211.23L84.572 211.491H84.1465L84.572 211.949Z" fill="#2A71C9"/>
<path d="M86.1103 212.832L86.0122 212.963L85.6194 212.44L85.6521 212.996L85.4558 212.898L85.4885 212.374L85.0957 212.44L84.9976 212.211H85.423L84.9976 211.72L85.0957 211.59L85.4885 212.113L85.4558 211.557L85.6521 211.655L85.6194 212.178L86.0122 212.113L86.1103 212.374H85.6849L86.1103 212.832Z" fill="#2A71C9"/>
<path d="M87.6486 213.715L87.5504 213.846L87.1576 213.323L87.1903 213.879L86.994 213.781L87.0267 213.257L86.634 213.323L86.5358 213.094H86.9613L86.5358 212.603L86.634 212.473L87.0267 212.996L86.994 212.44L87.1903 212.538L87.1576 213.061L87.5504 212.996L87.6486 213.257H87.2231L87.6486 213.715Z" fill="#2A71C9"/>
<path d="M89.1869 214.598L89.0887 214.729L88.6959 214.206L88.7287 214.762L88.5323 214.664L88.565 214.14L88.1723 214.206L88.0741 213.977H88.4996L88.0741 213.486L88.1723 213.356L88.565 213.879L88.5323 213.323L88.7287 213.421L88.6959 213.944L89.0887 213.879L89.1869 214.14H88.7614L89.1869 214.598Z" fill="#2A71C9"/>
<path d="M90.7251 215.481L90.6269 215.612L90.2342 215.089L90.2669 215.645L90.0705 215.547L90.1032 215.023L89.7105 215.089L89.6123 214.86H90.0378L89.6123 214.369L89.7105 214.239L90.1032 214.762L90.0705 214.206L90.2669 214.304L90.2342 214.827L90.6269 214.762L90.7251 215.023H90.2996L90.7251 215.481Z" fill="#2A71C9"/>
<path d="M92.2634 216.397L92.1652 216.528L91.7725 216.005L91.8052 216.56L91.6088 216.462L91.6416 215.939L91.2488 216.005L91.1506 215.776H91.5761L91.1506 215.285L91.2488 215.154L91.6416 215.678L91.6088 215.122L91.8052 215.22L91.7725 215.743L92.1652 215.678L92.2634 215.939H91.8379L92.2634 216.397Z" fill="#2A71C9"/>
<path d="M93.8016 217.28L93.7034 217.411L93.3107 216.888L93.3434 217.443L93.147 217.345L93.1798 216.822L92.787 216.888L92.6888 216.659H93.1143L92.6888 216.168L92.787 216.037L93.1798 216.561L93.147 216.005L93.3434 216.103L93.3107 216.626L93.7034 216.561L93.8016 216.822H93.3761L93.8016 217.28Z" fill="#2A71C9"/>
<path d="M95.34 218.163L95.2418 218.294L94.849 217.771L94.8818 218.326L94.6854 218.228L94.7181 217.705L94.3254 217.771L94.2272 217.542H94.6527L94.2272 217.051L94.3254 216.92L94.7181 217.443L94.6854 216.888L94.8818 216.986L94.849 217.509L95.2418 217.443L95.34 217.705H94.9145L95.34 218.163Z" fill="#2A71C9"/>
<path d="M96.8782 219.046L96.78 219.177L96.3872 218.653L96.42 219.209L96.2236 219.111L96.2563 218.588L95.8636 218.653L95.7654 218.425H96.1909L95.7654 217.934L95.8636 217.803L96.2563 218.326L96.2236 217.771L96.42 217.869L96.3872 218.392L96.78 218.326L96.8782 218.588H96.4527L96.8782 219.046Z" fill="#2A71C9"/>
<path d="M98.4165 219.929L98.3183 220.06L97.9256 219.536L97.9583 220.092L97.7619 219.994L97.7946 219.471L97.4019 219.536L97.3037 219.308H97.7292L97.3037 218.817L97.4019 218.686L97.7946 219.209L97.7619 218.653L97.9583 218.752L97.9256 219.275L98.3183 219.209L98.4165 219.471H97.991L98.4165 219.929Z" fill="#2A71C9"/>
<path d="M99.9547 220.812L99.8565 220.943L99.4638 220.419L99.4965 220.975L99.3001 220.877L99.3329 220.354L98.9401 220.419L98.8419 220.191H99.2674L98.8419 219.7L98.9401 219.569L99.3329 220.092L99.3001 219.536L99.4965 219.635L99.4638 220.158L99.8565 220.092L99.9547 220.354H99.5292L99.9547 220.812Z" fill="#2A71C9"/>
<path d="M101.493 221.728L101.395 221.858L101.002 221.335L101.035 221.891L100.838 221.793L100.871 221.27L100.478 221.335L100.38 221.106H100.806L100.38 220.616L100.478 220.485L100.871 221.008L100.838 220.452L101.035 220.55L101.002 221.074L101.395 221.008L101.493 221.27H101.068L101.493 221.728Z" fill="#2A71C9"/>
<path d="M101.591 155.177L100.871 154.752V154.555L101.591 154.98V155.177ZM100.478 154.555L99.7584 154.13V153.934L100.478 154.359V154.555ZM99.3984 153.934L98.6783 153.509V153.313L99.3984 153.738V153.934ZM98.3183 153.28L97.5983 152.855V152.658L98.3183 153.084V153.28ZM97.2383 152.658L96.5182 152.233V152.037L97.2383 152.462V152.658ZM96.1255 152.037L95.4054 151.612V151.416L96.1255 151.841V152.037ZM95.0454 151.416L94.3254 150.991V150.762L95.0454 151.187V151.416ZM93.9654 150.762L93.2453 150.337V150.14L93.9654 150.565V150.762ZM92.8526 150.14L92.1325 149.715V149.519L92.8526 149.944V150.14ZM91.7725 149.519L91.0525 149.094V148.898L91.7725 149.323V149.519ZM90.6924 148.898L89.9724 148.472V148.276L90.6924 148.701V148.898ZM89.5796 148.276L88.8596 147.851V147.655L89.5796 148.08V148.276ZM88.4996 147.622L87.7795 147.197V147.001L88.4996 147.426V147.622ZM87.4195 147.001L86.6995 146.576V146.379L87.4195 146.805V147.001ZM86.3395 146.379L85.6194 145.954V145.758L86.3395 146.183V146.379ZM85.2267 145.758L84.5066 145.333V145.137L85.2267 145.562V145.758ZM84.1466 145.104L83.4266 144.679V144.483L84.1466 144.908V145.104ZM83.0665 144.483L82.3465 144.058V143.861L83.0665 144.286V144.483ZM81.9537 143.861L81.2337 143.436V143.24L81.9537 143.665V143.861ZM80.8737 143.24L80.1536 142.815V142.619L80.8737 143.044V143.24ZM79.7936 142.619L79.0736 142.193V141.997L79.7936 142.422V142.619ZM78.6808 141.965L77.9608 141.539V141.343L78.6808 141.768V141.965ZM77.6008 141.343L76.8807 140.918V140.722L77.6008 141.147V141.343ZM76.5207 140.722L75.8007 140.297V140.1L76.5207 140.526V140.722ZM75.4406 140.1L74.7206 139.675V139.479L75.4406 139.904V140.1ZM74.3279 139.446L73.6078 139.021V138.825L74.3279 139.25V139.446ZM73.2478 138.825L72.5278 138.4V138.204L73.2478 138.629V138.825ZM72.1677 138.204L71.4477 137.779V137.582L72.1677 138.007V138.204ZM71.0549 137.582L70.3349 137.157V136.961L71.0549 137.386V137.582ZM69.9749 136.961L69.2548 136.536V136.34L69.9749 136.765V136.961ZM68.8948 136.307L68.1748 135.882V135.686L68.8948 136.111V136.307ZM67.782 135.686L67.062 135.26V135.064L67.782 135.489V135.686ZM66.702 135.064L65.9819 134.639V134.443L66.702 134.868V135.064ZM65.6219 134.443L64.9019 134.018V133.821L65.6219 134.247V134.443ZM64.5091 133.789L63.7891 133.364V133.167L64.5091 133.593V133.789ZM63.429 133.167L62.709 132.742V132.546L63.429 132.971V133.167ZM62.349 132.546L61.6289 132.121V131.925L62.349 132.35V132.546ZM61.2689 131.925L60.5489 131.5V131.303L61.2689 131.728V131.925ZM60.1561 131.271L59.4361 130.845V130.649L60.1561 131.074V131.271ZM59.0761 130.649L58.356 130.224V130.028L59.0761 130.453V130.649ZM57.996 130.028L57.276 129.603V129.407L57.996 129.832V130.028ZM56.8832 129.407L56.1632 128.981V128.785L56.8832 129.21V129.407ZM55.8032 128.785L55.0831 128.36V128.164L55.8032 128.589V128.785ZM54.7231 128.131L54.003 127.706V127.51L54.7231 127.935V128.131ZM53.6103 127.51L52.8903 127.085V126.888L53.6103 127.314V127.51Z" fill="#2A71C9"/>
<path d="M101.591 168.814L100.871 168.389V168.192L101.591 168.618V168.814ZM100.478 168.192L99.7584 167.767V167.571L100.478 167.996V168.192ZM99.3984 167.571L98.6783 167.146V166.95L99.3984 167.375V167.571ZM98.3183 166.95L97.5983 166.525V166.328L98.3183 166.754V166.95ZM97.2383 166.296L96.5182 165.871V165.674L97.2383 166.099V166.296ZM96.1255 165.674L95.4054 165.249V165.053L96.1255 165.478V165.674ZM95.0454 165.053L94.3254 164.628V164.432L95.0454 164.857V165.053ZM93.9654 164.432L93.2453 164.006V163.81L93.9654 164.235V164.432ZM92.8526 163.81L92.1325 163.385V163.189L92.8526 163.614V163.81ZM91.7725 163.156L91.0525 162.731V162.535L91.7725 162.96V163.156ZM90.6924 162.535L89.9724 162.11V161.913L90.6924 162.339V162.535ZM89.5796 161.913L88.8596 161.488V161.292L89.5796 161.717V161.913ZM88.4996 161.292L87.7795 160.867V160.671L88.4996 161.096V161.292ZM87.4195 160.638L86.6995 160.213V160.017L87.4195 160.442V160.638ZM86.3067 160.017L85.5867 159.592V159.395L86.3067 159.82V160.017ZM85.2267 159.395L84.5066 158.97V158.774L85.2267 159.199V159.395ZM84.1466 158.774L83.4266 158.349V158.153L84.1466 158.578V158.774ZM83.0665 158.153L82.3465 157.727V157.531L83.0665 157.956V158.153ZM81.9537 157.499L81.2337 157.073V156.877L81.9537 157.302V157.499ZM80.8737 156.877L80.1536 156.452V156.256L80.8737 156.681V156.877ZM79.7936 156.256L79.0736 155.831V155.634L79.7936 156.06V156.256ZM78.6808 155.634L77.9608 155.209V155.013L78.6808 155.438V155.634ZM77.6008 154.98L76.8807 154.555V154.359L77.6008 154.784V154.98ZM76.5207 154.359L75.8007 153.934V153.738L76.5207 154.163V154.359ZM75.4079 153.738L74.6879 153.313V153.116L75.4079 153.541V153.738ZM74.3279 153.116L73.6078 152.691V152.495L74.3279 152.92V153.116ZM73.2478 152.462L72.5278 152.037V151.841L73.2478 152.266V152.462ZM72.1677 151.841L71.4477 151.416V151.22L72.1677 151.645V151.841ZM71.0549 151.22L70.3349 150.794V150.598L71.0549 151.023V151.22ZM69.9749 150.598L69.2548 150.173V149.977L69.9749 150.402V150.598ZM68.8948 149.977L68.1748 149.552V149.355L68.8948 149.781V149.977ZM67.782 149.323L67.062 148.898V148.701L67.782 149.127V149.323ZM66.702 148.701L65.9819 148.276V148.08L66.702 148.505V148.701ZM65.6219 148.08L64.9019 147.655V147.459L65.6219 147.884V148.08ZM64.5091 147.459L63.7891 147.034V146.837L64.5091 147.262V147.459ZM63.429 146.805L62.709 146.379V146.183L63.429 146.608V146.805ZM62.349 146.183L61.6289 145.758V145.562L62.349 145.987V146.183ZM61.2689 145.562L60.5489 145.137V144.941L61.2689 145.366V145.562ZM60.1561 144.941L59.4361 144.515V144.319L60.1561 144.744V144.941ZM59.0761 144.319L58.356 143.894V143.698L59.0761 144.123V144.319ZM57.996 143.665L57.276 143.24V143.044L57.996 143.469V143.665ZM56.8832 143.044L56.1632 142.619V142.422L56.8832 142.848V143.044ZM55.8032 142.422L55.0831 141.997V141.801L55.8032 142.226V142.422ZM54.7231 141.801L54.003 141.376V141.18L54.7231 141.605V141.801ZM53.6103 141.147L52.8903 140.722V140.526L53.6103 140.951V141.147Z" fill="#2A71C9"/>
<path d="M101.591 189.45L100.871 189.024V188.828L101.591 189.253V189.45ZM100.478 188.828L99.7584 188.403V188.207L100.478 188.632V188.828ZM99.3984 188.207L98.6783 187.782V187.585L99.3984 188.011V188.207ZM98.3183 187.585L97.5983 187.16V186.964L98.3183 187.389V187.585ZM97.2383 186.931L96.5182 186.506V186.31L97.2383 186.735V186.931ZM96.1255 186.31L95.4054 185.885V185.689L96.1255 186.114V186.31ZM95.0454 185.689L94.3254 185.264V185.067L95.0454 185.492V185.689ZM93.9654 185.067L93.2453 184.642V184.446L93.9654 184.871V185.067ZM92.8526 184.446L92.1325 184.021V183.792L92.8526 184.217V184.446ZM91.7725 183.792L91.0525 183.367V183.171L91.7725 183.596V183.792ZM90.6924 183.171L89.9724 182.745V182.549L90.6924 182.974V183.171ZM89.5796 182.549L88.8596 182.124V181.928L89.5796 182.353V182.549ZM88.4996 181.928L87.7795 181.503V181.306L88.4996 181.732V181.928ZM87.4195 181.274L86.6995 180.849V180.652L87.4195 181.078V181.274ZM86.3067 180.652L85.5867 180.227V180.031L86.3067 180.456V180.652ZM85.2267 180.031L84.5066 179.606V179.41L85.2267 179.835V180.031ZM84.1466 179.41L83.4266 178.985V178.788L84.1466 179.213V179.41ZM83.0665 178.756L82.3465 178.33V178.134L83.0665 178.559V178.756ZM81.9537 178.134L81.2337 177.709V177.513L81.9537 177.938V178.134ZM80.8737 177.513L80.1536 177.088V176.892L80.8737 177.317V177.513ZM79.7936 176.892L79.0736 176.466V176.27L79.7936 176.695V176.892ZM78.6808 176.27L77.9608 175.845V175.616L78.6808 176.041V176.27ZM77.6008 175.616L76.8807 175.191V174.995L77.6008 175.42V175.616ZM76.5207 174.995L75.8007 174.57V174.373L76.5207 174.799V174.995ZM75.4079 174.373L74.6879 173.948V173.752L75.4079 174.177V174.373ZM74.3279 173.752L73.6078 173.327V173.131L74.3279 173.556V173.752ZM73.2478 173.098L72.5278 172.673V172.477L73.2478 172.902V173.098ZM72.1677 172.477L71.4477 172.051V171.855L72.1677 172.28V172.477ZM71.0549 171.855L70.3349 171.43V171.234L71.0549 171.659V171.855ZM69.9749 171.234L69.2548 170.809V170.613L69.9749 171.038V171.234ZM68.8948 170.613L68.1748 170.187V169.991L68.8948 170.416V170.613ZM67.782 169.958L67.062 169.533V169.337L67.782 169.762V169.958ZM66.702 169.337L65.9819 168.912V168.716L66.702 169.141V169.337ZM65.6219 168.716L64.9019 168.291V168.094L65.6219 168.52V168.716ZM64.5091 168.094L63.7891 167.669V167.44L64.5091 167.865V168.094ZM63.429 167.44L62.709 167.015V166.819L63.429 167.244V167.44ZM62.349 166.819L61.6289 166.394V166.198L62.349 166.623V166.819ZM61.2689 166.198L60.5489 165.772V165.576L61.2689 166.001V166.198ZM60.1561 165.576L59.4361 165.151V164.955L60.1561 165.38V165.576ZM59.0761 164.955L58.356 164.53V164.334L59.0761 164.759V164.955ZM57.996 164.301L57.276 163.876V163.679L57.996 164.105V164.301ZM56.8832 163.679L56.1632 163.254V163.058L56.8832 163.483V163.679ZM55.8032 163.058L55.0831 162.633V162.437L55.8032 162.862V163.058ZM54.7231 162.437L54.003 162.012V161.815L54.7231 162.241V162.437ZM53.6103 161.783L52.8903 161.358V161.161L53.6103 161.586V161.783Z" fill="#2A71C9"/>
<path d="M85.9467 218.359C85.7176 217.967 85.3903 217.607 85.0303 217.411L70.1385 208.81C69.7785 208.614 69.4839 208.581 69.2221 208.712C68.993 208.843 68.8621 209.137 68.8621 209.529C68.8621 209.922 68.993 210.38 69.2221 210.772C69.4512 211.164 69.7785 211.524 70.1385 211.72L85.0303 220.321C85.3903 220.518 85.6849 220.55 85.9467 220.419C86.1758 220.289 86.3067 219.994 86.3067 219.602C86.3067 219.209 86.1758 218.784 85.9467 218.359Z" fill="#2A71C9"/>
<path d="M82.5101 162.241C82.3465 161.946 82.1174 161.717 81.8883 161.586L53.7739 145.366C53.5448 145.235 53.3157 145.202 53.1521 145.3C52.9884 145.398 52.8903 145.595 52.8903 145.889C52.8903 146.183 52.9884 146.478 53.1521 146.772C53.3157 147.066 53.5448 147.295 53.7739 147.426L81.8883 163.647C82.1174 163.778 82.3465 163.81 82.5101 163.712C82.6738 163.614 82.772 163.418 82.772 163.123C82.772 162.829 82.6738 162.535 82.5101 162.241Z" fill="#2A71C9"/>
<path d="M102.377 173.687C102.213 173.392 101.984 173.163 101.755 173.033L93.3762 168.192C93.1471 168.062 92.918 168.029 92.7544 168.127C92.5907 168.225 92.4926 168.421 92.4926 168.716C92.4926 169.01 92.5907 169.304 92.7544 169.599C92.918 169.893 93.1471 170.122 93.3762 170.253L101.755 175.093C101.984 175.224 102.213 175.256 102.377 175.158C102.54 175.06 102.639 174.864 102.639 174.57C102.639 174.275 102.54 173.981 102.377 173.687Z" fill="#2A71C9"/>
<path d="M87.5832 169.991C87.4195 169.697 87.1904 169.468 86.9613 169.337L53.7412 150.173C53.5121 150.042 53.283 150.01 53.1194 150.108C52.9557 150.206 52.8575 150.402 52.8575 150.696C52.8575 150.991 52.9557 151.285 53.1194 151.579C53.283 151.874 53.5121 152.103 53.7412 152.233L86.9613 171.397C87.1904 171.528 87.4195 171.561 87.5832 171.463C87.7468 171.365 87.845 171.168 87.845 170.874C87.845 170.58 87.7468 170.285 87.5832 169.991Z" fill="#2A71C9"/>
<path d="M102.377 178.527C102.213 178.232 101.984 178.003 101.755 177.873L93.3762 173.033C93.1471 172.902 92.918 172.869 92.7544 172.967C92.5907 173.065 92.4926 173.262 92.4926 173.556C92.4926 173.85 92.5907 174.144 92.7544 174.439C92.918 174.733 93.1471 174.962 93.3762 175.093L101.755 179.933C101.984 180.064 102.213 180.096 102.377 179.998C102.54 179.9 102.639 179.704 102.639 179.41C102.639 179.115 102.54 178.788 102.377 178.527Z" fill="#2A71C9"/>
<path d="M78.2881 169.435C78.1244 169.141 77.8953 168.912 77.6662 168.781L53.7739 154.98C53.5448 154.85 53.3157 154.817 53.1521 154.915C52.9884 155.013 52.8903 155.209 52.8903 155.504C52.8903 155.798 52.9884 156.092 53.1521 156.387C53.3157 156.681 53.5448 156.91 53.7739 157.041L77.6662 170.841C77.8953 170.972 78.1244 171.005 78.2881 170.907C78.4517 170.809 78.5499 170.613 78.5499 170.318C78.5499 170.024 78.4517 169.73 78.2881 169.435Z" fill="#2A71C9"/>
<path d="M82.5429 195.859C82.3792 195.565 82.1501 195.336 81.921 195.205L53.7412 178.952C53.5121 178.821 53.283 178.788 53.1194 178.886C52.9557 178.985 52.8575 179.181 52.8575 179.475C52.8575 179.769 52.9557 180.064 53.1194 180.358C53.283 180.652 53.5121 180.881 53.7412 181.012L81.921 197.266C82.1501 197.396 82.3792 197.429 82.5429 197.331C82.7065 197.233 82.8047 197.037 82.8047 196.742C82.8047 196.448 82.7065 196.121 82.5429 195.859Z" fill="#2A71C9"/>
<path d="M87.7141 203.643C87.5504 203.348 87.3214 203.119 87.0922 202.989L53.7412 183.759C53.5121 183.628 53.283 183.596 53.1194 183.694C52.9557 183.792 52.8575 183.988 52.8575 184.282C52.8575 184.577 52.9557 184.871 53.1194 185.165C53.283 185.46 53.5121 185.689 53.7412 185.819L87.0922 205.049C87.3214 205.18 87.5504 205.212 87.7141 205.114C87.8777 205.016 87.9759 204.82 87.9759 204.526C87.9759 204.231 87.8777 203.937 87.7141 203.643Z" fill="#2A71C9"/>
<path d="M102.377 183.334C102.213 183.04 101.984 182.811 101.755 182.68L93.3762 177.84C93.1471 177.709 92.918 177.676 92.7544 177.775C92.5907 177.873 92.4926 178.069 92.4926 178.363C92.4926 178.658 92.5907 178.952 92.7544 179.246C92.918 179.54 93.1471 179.769 93.3762 179.9L101.755 184.74C101.984 184.871 102.213 184.904 102.377 184.806C102.54 184.708 102.639 184.511 102.639 184.217C102.639 183.923 102.54 183.628 102.377 183.334Z" fill="#2A71C9"/>
<path d="M102.377 194.878C102.213 194.584 101.984 194.355 101.755 194.224L93.3762 189.384C93.1471 189.253 92.918 189.221 92.7544 189.319C92.5907 189.417 92.4926 189.613 92.4926 189.907C92.4926 190.202 92.5907 190.496 92.7544 190.79C92.918 191.085 93.1471 191.314 93.3762 191.444L101.755 196.285C101.984 196.415 102.213 196.448 102.377 196.35C102.54 196.252 102.639 196.056 102.639 195.761C102.639 195.467 102.54 195.173 102.377 194.878Z" fill="#2A71C9"/>
<path d="M90.2342 109.588C90.0705 109.294 89.8414 109.065 89.6123 108.934L64.7382 94.5777C64.5091 94.4468 64.28 94.4141 64.1163 94.5122C63.9527 94.6104 63.8545 94.8066 63.8545 95.1009C63.8545 95.3952 63.9527 95.6896 64.1163 95.9839C64.28 96.2782 64.5091 96.5071 64.7382 96.6379L89.6123 110.995C89.8414 111.125 90.0705 111.158 90.2342 111.06C90.3978 110.962 90.496 110.766 90.496 110.471C90.496 110.177 90.3978 109.85 90.2342 109.588Z" fill="#2A71C9"/>
<path d="M83.3283 183.89C83.1647 183.596 82.9356 183.367 82.7065 183.236L74.0005 178.232C73.7714 178.102 73.5423 178.069 73.3787 178.167C73.215 178.265 73.1168 178.461 73.1168 178.756C73.1168 179.05 73.215 179.344 73.3787 179.639C73.5423 179.933 73.7714 180.162 74.0005 180.293L82.7065 185.329C82.9356 185.46 83.1647 185.492 83.3283 185.394C83.492 185.296 83.5902 185.1 83.5902 184.806C83.5902 184.511 83.492 184.184 83.3283 183.89Z" fill="#2A71C9"/>
</g>
<path d="M81.4628 241.415L80.0227 240.597C80.0227 241.415 79.4663 241.742 78.7463 241.349C78.0262 240.957 77.4698 239.943 77.4698 239.126L76.0297 238.308C76.0297 239.126 75.4733 239.453 74.7533 239.06C74.0333 238.668 73.4769 237.654 73.4769 236.836L72.0368 236.019C72.0368 236.836 71.4477 237.163 70.7603 236.771C70.0403 236.379 69.4839 235.365 69.4839 234.547L68.0438 233.73C68.0438 234.547 67.4547 234.874 66.7674 234.482C66.0473 234.089 65.491 233.076 65.491 232.258L64.0509 231.44C64.0509 232.258 63.4617 232.585 62.7744 232.193C62.0544 231.8 61.498 230.786 61.498 229.969L60.0579 229.151C60.0579 229.969 59.4688 230.296 58.7815 229.903C58.0614 229.511 57.505 228.497 57.505 227.68L56.065 226.862C56.065 227.68 55.5086 228.007 54.7885 227.614C54.0685 227.222 53.5121 226.208 53.5121 225.39L52.072 224.573C52.072 225.39 51.5156 225.717 50.7956 225.325C50.0755 224.932 49.5191 223.919 49.5191 223.101L48.079 222.284C48.079 223.101 47.4899 223.428 46.8026 223.036C46.0826 222.643 45.5262 221.629 45.5262 220.812L44.0861 219.994C44.0861 220.812 43.497 221.139 42.8096 220.746C42.0896 220.354 41.5332 219.34 41.5332 218.523L40.0931 217.705C40.0931 218.523 39.5367 218.85 38.8167 218.457C38.0966 218.065 37.5402 217.051 37.5402 216.233L36.1002 215.416C36.1002 216.233 35.5438 216.56 34.8237 216.168C34.1037 215.776 33.5473 214.762 33.5473 213.944L32.1072 213.127C32.1072 213.944 31.5181 214.271 30.8308 213.879C30.1107 213.486 29.5543 212.473 29.5543 211.655L28.1143 210.837C28.1143 211.655 27.5251 211.982 26.8378 211.59C26.1178 211.197 25.5614 210.183 25.5614 209.366L24.2195 208.581V214.01L81.4955 247.04V241.415H81.4628Z" fill="#BBC2C6"/>
<path d="M140.343 93.2695C139.361 91.5689 138.019 90.0973 136.513 89.2143L58.9779 44.4764C57.4724 43.6261 56.1305 43.528 55.1486 44.0839L27.9179 59.8141C26.9361 60.3701 26.3142 61.5801 26.3142 63.3134V124.37C26.3142 126.103 26.9361 128 27.9179 129.701C28.8998 131.401 30.2417 132.873 31.7472 133.756L109.283 178.494C110.788 179.344 112.13 179.442 113.112 178.886L140.343 163.156C141.324 162.6 141.946 161.39 141.946 159.657V98.6001C141.946 96.8668 141.324 94.9701 140.343 93.2695Z" fill="#414E5F"/>
<path opacity="0.5" d="M31.7472 133.789C30.2417 132.938 28.8998 131.434 27.9179 129.734C26.9361 128.033 26.3142 126.103 26.3142 124.403V63.3461C26.3142 61.6128 26.9361 60.4028 27.9179 59.8468C28.8998 59.2909 30.2417 59.3563 31.7472 60.2393L109.283 104.977C110.788 105.827 112.13 107.332 113.112 109.032C114.094 110.733 114.716 112.662 114.716 114.363V175.42C114.716 177.153 114.094 178.363 113.112 178.919C112.13 179.475 110.788 179.41 109.283 178.527L31.7472 133.789Z" fill="#5B6879"/>
<path d="M111.508 178.919C110.854 178.919 110.134 178.69 109.381 178.265L31.8454 133.527C30.4708 132.742 29.1943 131.369 28.2124 129.701C27.2306 128 26.7069 126.202 26.7069 124.632V63.575C26.7069 62.1033 27.1651 61.0241 28.0161 60.5663C28.3434 60.3701 28.7361 60.272 29.1616 60.272C29.8162 60.272 30.5362 60.5009 31.289 60.926L108.792 105.631C110.166 106.416 111.443 107.79 112.425 109.458C113.406 111.158 113.93 112.957 113.93 114.527V175.583C113.93 177.055 113.472 178.134 112.621 178.592C112.326 178.821 111.934 178.919 111.508 178.919Z" fill="#414E5F"/>
<path opacity="0.5" d="M140.343 93.2695L113.112 109C114.094 110.7 114.716 112.63 114.716 114.33L141.946 98.6001C141.946 96.8668 141.324 94.97 140.343 93.2695Z" fill="#29333F"/>
<path opacity="0.5" d="M136.513 89.2143L109.283 104.945C110.788 105.795 112.13 107.299 113.112 109L140.343 93.2695C139.361 91.5689 138.019 90.0646 136.513 89.2143Z" fill="#5B6879"/>
<path d="M110.788 179.148C110.625 179.115 110.461 179.05 110.265 178.984C110.461 179.05 110.625 179.083 110.788 179.148Z" stroke="#0000FF" stroke-width="0.5" stroke-miterlimit="10"/>
<path d="M110.788 179.148C111.672 179.377 112.49 179.279 113.112 178.919C112.49 179.279 111.672 179.344 110.788 179.148Z" stroke="#0000FF" stroke-width="0.5" stroke-miterlimit="10"/>
<path d="M114.716 114.33V175.387C114.716 177.12 114.094 178.33 113.112 178.886L140.343 163.156C141.324 162.6 141.946 161.39 141.946 159.657V98.6001L114.716 114.33Z" fill="#29333F"/>
<path d="M58.9779 44.4764C57.4724 43.6261 56.1305 43.528 55.1486 44.0839L27.918 59.8141C28.8998 59.2582 30.2417 59.3236 31.7473 60.2066L109.283 104.945L136.513 89.2143L58.9779 44.4764Z" fill="#5B6879"/>
<path d="M108.432 169.206L35.7729 127.248L34.2019 128.164L106.893 170.089C107.81 170.612 108.563 170.253 108.661 169.272C108.563 169.272 108.497 169.239 108.432 169.206Z" fill="#5B6879"/>
<path opacity="0.5" d="M33.9729 124.207L32.4019 125.122C32.4019 126.267 33.1874 127.641 34.1692 128.196L35.7402 127.281C34.7911 126.692 33.9729 125.319 33.9729 124.207Z" fill="#5B6879"/>
<path d="M32.4019 69.6251V125.09L33.9729 124.174V68.7094C33.9729 68.644 33.9729 68.5786 33.9729 68.5132C33.0892 68.1208 32.4019 68.5786 32.4019 69.6251Z" fill="#29333F"/>
<path d="M108.628 113.611C108.628 112.466 107.843 111.093 106.861 110.537L34.1693 68.6113C34.1038 68.5786 34.0383 68.5459 34.0056 68.5132C34.0056 68.5786 34.0056 68.644 34.0056 68.7094V124.174C34.0056 125.319 34.7911 126.692 35.773 127.248L108.464 169.174C108.53 169.206 108.595 169.239 108.628 169.272C108.628 169.206 108.628 169.141 108.628 169.075V113.611Z" fill="#D4DBDF"/>
<path opacity="0.2" d="M106.861 110.537L34.1692 68.6113C33.3837 68.1534 32.7291 68.3497 32.5 69.0037C32.6964 69.0364 32.9255 69.1018 33.1546 69.2326L105.846 111.191C106.828 111.747 107.613 113.12 107.613 114.265V169.729C107.613 169.958 107.581 170.187 107.515 170.351C108.17 170.416 108.628 169.958 108.628 169.108V113.644C108.628 112.499 107.843 111.125 106.861 110.537Z" fill="black"/>
<path d="M99.922 132.84L41.8932 99.3523C41.5332 99.1561 41.2386 98.6328 41.2386 98.2077V83.3277C41.2386 82.9026 41.5332 82.7391 41.8932 82.9353L99.922 116.423C100.282 116.62 100.577 117.143 100.577 117.568V132.448C100.577 132.873 100.282 133.037 99.922 132.84Z" fill="#414E5F"/>
<path d="M49.3555 102.001L43.5624 98.6655C43.2024 98.4693 42.9078 97.9461 42.9078 97.5209V85.944C42.9078 85.5189 43.2024 85.3553 43.5624 85.5516L49.3555 88.8873C49.7155 89.0835 50.0101 89.6067 50.0101 90.0319V101.609C50.0101 102.034 49.7155 102.23 49.3555 102.001Z" fill="#29333F"/>
<path d="M46.4426 97.9788C46.0498 97.7498 45.6898 97.4555 45.428 97.0631C45.1334 96.6706 44.937 96.2782 44.8061 95.8204C44.6752 95.3625 44.6097 94.9047 44.6097 94.4141V90.7841C44.6097 89.9992 44.7734 89.4759 45.0679 89.2143C45.3625 88.9527 45.8207 88.9854 46.4426 89.3451C47.0644 89.7049 47.5226 90.1954 47.8172 90.8168C48.1118 91.4381 48.2754 92.1249 48.2754 92.9098V96.5398C48.2754 97.292 48.1118 97.8152 47.8172 98.0769C47.4899 98.3712 47.0644 98.3385 46.4426 97.9788ZM46.4426 96.9977C46.9662 97.292 47.2281 96.9323 47.2281 95.9512V92.3211C47.2281 92.1576 47.2281 91.9941 47.1953 91.8633C47.1953 91.7325 47.1626 91.5689 47.1299 91.4054C47.0972 91.2419 47.0644 91.1111 46.999 90.9803C46.9335 90.8495 46.868 90.7514 46.7699 90.6206C46.6717 90.5224 46.5735 90.4243 46.4426 90.3262C46.3117 90.2608 46.2135 90.2281 46.1153 90.2281C46.0171 90.2281 45.9516 90.2608 45.8862 90.3262C45.8207 90.3916 45.788 90.457 45.7553 90.5878C45.7225 90.7187 45.6898 90.8168 45.6898 90.9476C45.6898 91.0784 45.6571 91.2092 45.6571 91.4054V95.0355C45.6571 95.2317 45.6571 95.4279 45.6898 95.5914C45.7225 95.7876 45.7553 95.9512 45.8207 96.1474C45.8862 96.3436 45.9516 96.5071 46.0498 96.6379C46.1807 96.8014 46.3117 96.8996 46.4426 96.9977Z" fill="white"/>
<path d="M57.505 106.711L51.712 103.375C51.3519 103.179 51.0574 102.655 51.0574 102.23V90.6533C51.0574 90.2281 51.3519 90.0646 51.712 90.2608L57.505 93.5966C57.865 93.7928 58.1596 94.316 58.1596 94.7412V106.318C58.1596 106.743 57.865 106.939 57.505 106.711Z" fill="#29333F"/>
<path d="M54.5921 102.688C54.1994 102.459 53.8393 102.165 53.5775 101.772C53.2829 101.38 53.0866 100.987 52.9557 100.53C52.8247 100.072 52.7593 99.614 52.7593 99.1234V95.4933C52.7593 94.7085 52.9229 94.1852 53.2175 93.9236C53.5121 93.662 53.9703 93.6947 54.5921 94.0544C55.214 94.4141 55.6722 94.9047 55.9667 95.5261C56.2613 96.1474 56.4249 96.8342 56.4249 97.6191V101.249C56.4249 102.001 56.2613 102.525 55.9667 102.786C55.6722 103.08 55.214 103.048 54.5921 102.688ZM54.5921 101.707C55.1158 102.001 55.3776 101.642 55.3776 100.66V97.0304C55.3776 96.8669 55.3776 96.7034 55.3449 96.5726C55.3449 96.4417 55.3122 96.2782 55.2794 96.1147C55.2467 95.9512 55.214 95.8204 55.1485 95.6896C55.083 95.5588 55.0176 95.4606 54.9194 95.3298C54.8212 95.2317 54.723 95.1336 54.5921 95.0355C54.4612 94.9701 54.363 94.9374 54.2648 94.9374C54.1666 94.9374 54.1012 94.9701 54.0357 95.0355C53.9703 95.1009 53.9375 95.1663 53.9048 95.2971C53.8721 95.4279 53.8393 95.5261 53.8393 95.6569C53.8393 95.7877 53.8066 95.9185 53.8066 96.1147V99.7448C53.8066 99.941 53.8066 100.137 53.8393 100.301C53.8721 100.497 53.9048 100.66 53.9703 100.857C54.0357 101.053 54.1012 101.216 54.1994 101.347C54.3303 101.511 54.4612 101.609 54.5921 101.707Z" fill="white"/>
<path d="M65.6546 111.42L59.8615 108.084C59.5015 107.888 59.2069 107.365 59.2069 106.939V95.3625C59.2069 94.9374 59.5015 94.7739 59.8615 94.9701L65.6546 98.3058C66.0146 98.502 66.3091 99.0253 66.3091 99.4504V111.027C66.3419 111.452 66.0473 111.616 65.6546 111.42Z" fill="#29333F"/>
<path d="M60.8434 106.187V104.977L62.6762 103.015C62.7089 102.982 62.7417 102.95 62.8071 102.884C62.8726 102.819 62.9381 102.753 62.9381 102.721C62.9708 102.688 63.0035 102.655 63.069 102.557C63.1344 102.492 63.1672 102.426 63.1999 102.394C63.2326 102.361 63.2653 102.296 63.2981 102.197C63.3308 102.099 63.3635 102.034 63.3963 101.969C63.429 101.903 63.429 101.805 63.429 101.707C63.429 101.609 63.4617 101.478 63.4617 101.38C63.4617 101.053 63.3963 100.726 63.2653 100.399C63.1344 100.072 62.9381 99.8428 62.6762 99.712C62.5126 99.6139 62.4144 99.5812 62.2835 99.6139C62.1853 99.6466 62.0871 99.712 62.0544 99.8428C61.9889 99.9736 61.9562 100.104 61.9234 100.268C61.8907 100.431 61.8907 100.595 61.8907 100.791V101.086L60.8434 100.497V100.203C60.8434 99.4177 60.9743 98.8944 61.2689 98.6001C61.5634 98.3385 62.0216 98.3712 62.6435 98.7309C63.2326 99.058 63.6908 99.5158 64.0181 100.104C64.3454 100.66 64.4763 101.314 64.4763 102.001C64.4763 102.263 64.4436 102.492 64.4109 102.688C64.3781 102.884 64.3127 103.08 64.2145 103.244C64.1163 103.407 64.0508 103.538 63.9854 103.636C63.9199 103.735 63.8217 103.833 63.6908 103.996L61.858 105.664L64.4763 107.168V108.378L60.8434 106.187Z" fill="white"/>
<path d="M73.8369 116.129L68.0439 112.793C67.6838 112.597 67.3893 112.074 67.3893 111.649V100.072C67.3893 99.6466 67.6838 99.4831 68.0439 99.6793L73.8369 103.015C74.197 103.211 74.4915 103.735 74.4915 104.16V115.737C74.4915 116.162 74.197 116.325 73.8369 116.129Z" fill="#29333F"/>
<path d="M70.8586 112.074C70.2695 111.747 69.8113 111.289 69.484 110.7C69.1567 110.144 69.0258 109.49 69.0258 108.804V108.509L70.0731 109.098C70.0731 109.294 70.0731 109.458 70.0731 109.588C70.0731 109.719 70.1058 109.883 70.1386 110.046C70.1713 110.21 70.204 110.341 70.2695 110.439C70.3349 110.57 70.4004 110.668 70.4986 110.766C70.5968 110.864 70.7277 110.962 70.8586 111.06C70.9895 111.125 71.1204 111.191 71.2186 111.191C71.3168 111.191 71.3823 111.158 71.4477 111.125C71.5132 111.06 71.5459 110.995 71.5786 110.864C71.6114 110.733 71.6441 110.635 71.6441 110.504C71.6441 110.373 71.6441 110.21 71.6441 110.014C71.6441 109.523 71.5786 109.098 71.415 108.771C71.2513 108.411 70.9895 108.117 70.5968 107.921V106.711C70.9895 106.939 71.2513 107.005 71.415 106.907C71.5786 106.809 71.6441 106.547 71.6441 106.122C71.6441 105.729 71.5786 105.402 71.4804 105.108C71.3495 104.846 71.1532 104.618 70.8586 104.454C70.7277 104.389 70.5968 104.323 70.4986 104.323C70.4004 104.323 70.3349 104.356 70.2695 104.389C70.204 104.454 70.1713 104.519 70.1386 104.65C70.1058 104.781 70.0731 104.879 70.0731 105.01C70.0731 105.141 70.0731 105.304 70.0731 105.501L69.0258 104.912V104.618C69.0258 103.931 69.1894 103.473 69.484 103.277C69.8113 103.08 70.2367 103.146 70.8586 103.473C71.4477 103.8 71.9059 104.258 72.2332 104.846C72.5605 105.402 72.6914 106.056 72.6914 106.743C72.6914 107.234 72.5932 107.561 72.4296 107.757C72.2332 107.953 72.0041 108.019 71.6768 107.953C72.0041 108.28 72.2659 108.673 72.4623 109.131C72.626 109.588 72.7242 110.112 72.7242 110.668C72.7242 111.452 72.5932 111.976 72.2987 112.27C72.0041 112.564 71.4804 112.434 70.8586 112.074Z" fill="white"/>
<path d="M81.9865 120.838L76.1934 117.503C75.8334 117.306 75.5388 116.783 75.5388 116.358V104.781C75.5388 104.356 75.8334 104.192 76.1934 104.389L81.9865 107.724C82.3465 107.921 82.641 108.444 82.641 108.869V120.446C82.641 120.871 82.3465 121.035 81.9865 120.838Z" fill="#29333F"/>
<path d="M77.6334 115.9L78.9753 109.229L77.0443 108.117V107.103L79.9899 108.804V109.392L78.648 116.489L77.6334 115.9Z" fill="white"/>
<path d="M90.136 125.548L84.3429 122.212C83.9829 122.016 83.6884 121.492 83.6884 121.067V109.49C83.6884 109.065 83.9829 108.902 84.3429 109.098L90.136 112.434C90.496 112.63 90.7906 113.153 90.7906 113.578V125.155C90.7906 125.58 90.496 125.744 90.136 125.548Z" fill="#29333F"/>
<path d="M87.1904 121.492C86.5358 121.133 86.0776 120.642 85.783 120.053C85.5212 119.465 85.3575 118.778 85.3575 117.96L86.4049 118.549V118.745C86.4049 118.909 86.4049 119.04 86.4049 119.17C86.4049 119.301 86.4376 119.432 86.4703 119.563C86.5031 119.694 86.5358 119.824 86.6013 119.923C86.6667 120.021 86.7322 120.119 86.7976 120.217C86.8958 120.315 86.994 120.413 87.0922 120.479C87.1904 120.544 87.2886 120.577 87.354 120.577C87.4195 120.609 87.4849 120.609 87.5504 120.577C87.6159 120.577 87.6486 120.544 87.714 120.479C87.7468 120.413 87.7795 120.38 87.8122 120.315C87.845 120.282 87.8777 120.184 87.8777 120.086C87.9104 119.988 87.9104 119.89 87.9104 119.824C87.9104 119.759 87.9432 119.661 87.9432 119.497C87.9432 119.367 87.9432 119.269 87.9432 119.17C87.9432 119.105 87.9432 118.974 87.9432 118.811C87.9432 118.745 87.9432 118.68 87.9432 118.647C87.9432 118.516 87.9432 118.386 87.9432 118.287C87.9432 118.189 87.9432 118.091 87.9104 117.96C87.9104 117.83 87.8777 117.731 87.845 117.666C87.8122 117.568 87.7795 117.47 87.7468 117.372C87.714 117.274 87.6486 117.176 87.6159 117.11C87.5504 117.045 87.4849 116.947 87.4195 116.881C87.354 116.816 87.2558 116.75 87.1576 116.685C86.9613 116.587 86.7976 116.554 86.6667 116.62C86.5358 116.685 86.4376 116.783 86.3721 116.947L85.4885 116.423V111.878L88.7287 113.742V114.952L86.4376 113.644L86.3721 115.638C86.6667 115.606 87.0267 115.704 87.4195 115.933C87.6486 116.064 87.8777 116.227 88.0413 116.423C88.2377 116.62 88.3686 116.816 88.4995 117.012C88.6305 117.208 88.7286 117.47 88.7941 117.731C88.8596 117.993 88.925 118.255 88.9578 118.516C88.9905 118.778 88.9905 119.04 88.9905 119.334C88.9905 119.694 88.9578 120.021 88.9578 120.282C88.925 120.544 88.8596 120.806 88.7941 121.035C88.6959 121.263 88.5977 121.427 88.4668 121.525C88.3359 121.623 88.1395 121.656 87.9432 121.656C87.7468 121.754 87.4849 121.656 87.1904 121.492Z" fill="white"/>
<path d="M98.2855 130.224L92.4925 126.888C92.1325 126.692 91.8379 126.169 91.8379 125.744V114.167C91.8379 113.742 92.1325 113.578 92.4925 113.774L98.2855 117.11C98.6455 117.306 98.9401 117.83 98.9401 118.255V129.832C98.9401 130.29 98.6455 130.453 98.2855 130.224Z" fill="#C1060B"/>
<path d="M96.6164 116.162L93.8999 114.592C93.998 114.788 94.0962 114.952 94.2271 115.115C93.9653 115.148 93.7362 115.311 93.638 115.54C93.5071 115.802 93.4417 116.162 93.4417 116.685C93.4417 117.503 93.5726 118.189 93.8671 118.778C94.1617 119.367 94.6199 119.857 95.2745 120.217C95.9291 120.577 96.3873 120.642 96.6818 120.38C96.9764 120.119 97.1073 119.596 97.1073 118.778C97.1073 118.255 97.0419 117.797 96.9109 117.404C96.78 117.012 96.5836 116.62 96.3218 116.26C96.42 116.325 96.5182 116.26 96.6164 116.162ZM96.0273 118.713C96.0273 118.843 95.9945 118.974 95.9618 119.072C95.9291 119.203 95.8963 119.269 95.8309 119.334C95.7654 119.399 95.7 119.399 95.6018 119.399C95.5036 119.399 95.3727 119.367 95.2418 119.269C95.1108 119.203 94.9799 119.105 94.8817 118.974C94.7835 118.876 94.7181 118.745 94.6526 118.647C94.5872 118.516 94.5544 118.386 94.5217 118.222C94.489 118.059 94.4563 117.928 94.4563 117.797C94.4563 117.666 94.4563 117.503 94.4563 117.306C94.4563 117.11 94.4563 116.914 94.489 116.783C94.5217 116.652 94.5544 116.521 94.6199 116.391C94.6854 116.293 94.7508 116.227 94.849 116.194C94.9472 116.162 95.0781 116.227 95.2418 116.293C95.4054 116.391 95.5363 116.489 95.6345 116.652C95.7327 116.783 95.8309 116.947 95.8636 117.11C95.9291 117.274 95.9618 117.47 95.9618 117.633C95.9945 117.797 95.9945 117.993 95.9945 118.189C96.0272 118.418 96.0273 118.582 96.0273 118.713Z" fill="white"/>
<path d="M96.9109 126.496C96.8127 126.202 96.6818 125.94 96.5509 125.678C96.42 125.417 96.2236 125.188 96.0272 124.992C95.8308 124.763 95.6017 124.599 95.3399 124.436C95.0126 124.239 94.7508 124.174 94.489 124.174C94.2599 124.174 94.0635 124.272 93.9326 124.468C93.8016 124.632 93.6707 124.893 93.6053 125.155C93.5398 125.449 93.5071 125.776 93.5071 126.169C93.5071 126.529 93.5398 126.856 93.5725 127.183C93.6053 127.314 93.638 127.444 93.6707 127.575L94.849 128.262L94.8162 128.229C94.7835 128.164 94.7508 128.098 94.7181 128C94.6853 127.902 94.6526 127.837 94.6526 127.771C94.6199 127.706 94.6199 127.641 94.6199 127.51C94.6199 127.412 94.5871 127.314 94.5871 127.248C94.5871 127.183 94.5871 127.085 94.5871 126.986C94.5871 126.856 94.5871 126.79 94.5871 126.725C94.5871 126.659 94.5871 126.561 94.5871 126.463C94.5871 126.267 94.5871 126.103 94.6199 125.94C94.6526 125.776 94.6853 125.646 94.7508 125.515C94.8162 125.384 94.8817 125.319 94.9799 125.286C95.0781 125.253 95.209 125.286 95.3726 125.384C95.5363 125.482 95.6345 125.58 95.7654 125.744C95.8636 125.875 95.9618 126.071 95.9945 126.234C96.0599 126.431 96.0927 126.594 96.1254 126.79C96.1581 126.986 96.1581 127.15 96.1581 127.379V128.589C96.0599 128.72 95.9618 128.785 95.8636 128.818L97.2055 129.603V128.295C97.2055 128 97.1727 127.673 97.14 127.379C97.0746 127.085 97.0091 126.79 96.9109 126.496Z" fill="white"/>
<path d="M43.497 114.984C42.3515 114.33 41.4023 112.695 41.4023 111.354V109.065C41.4023 107.724 42.3515 107.201 43.497 107.855L97.1401 138.792C98.2856 139.446 99.2348 141.082 99.2348 142.422V144.712C99.2348 146.052 98.2856 146.576 97.1401 145.922L43.497 114.984Z" fill="#414E5F"/>
<path d="M97.14 144.81L43.497 113.873C42.8751 113.513 42.3514 112.63 42.3514 111.91V109.621C42.3514 108.902 42.8751 108.607 43.497 108.967L97.14 139.904C97.7619 140.264 98.2856 141.147 98.2856 141.866V144.156C98.2856 144.875 97.7619 145.169 97.14 144.81Z" fill="#29333F"/>
<path d="M44.2825 109.686C49.0937 115.54 56.5887 121.689 66.3747 127.346C76.1607 133.004 86.7977 137.321 96.9437 140.1V139.708L44.2498 109.359V109.686H44.2825Z" fill="url(#paint0_linear_110_512)"/>
<path d="M67.1601 122.572L44.2825 109.392V109.687C49.0937 115.54 56.5886 121.689 66.3747 127.346C66.6365 127.51 66.8983 127.641 67.1601 127.771V122.572Z" fill="url(#paint1_linear_110_512)"/>
<path d="M52.7593 131.99L51.7775 131.434V125.253L52.7593 125.809V131.99Z" fill="#29333F"/>
<path d="M56.6868 134.247L55.7377 133.691V127.51L56.6868 128.066V134.247Z" fill="#29333F"/>
<path d="M53.4794 132.415L53.2175 132.219V126.071L53.4794 126.234V132.415Z" fill="#29333F"/>
<path d="M57.4723 134.704L57.1777 134.541V128.36L57.4723 128.524V134.704Z" fill="#29333F"/>
<path d="M58.1597 135.097L57.8651 134.933V128.752L58.1597 128.916V135.097Z" fill="#29333F"/>
<path d="M58.8469 135.489L58.5524 135.326V129.145L58.8469 129.308V135.489Z" fill="#29333F"/>
<path d="M67.8803 140.689L67.5857 140.526V134.345L67.8803 134.541V140.689Z" fill="#29333F"/>
<path d="M62.0872 137.353L61.7926 137.19V131.009L62.0872 131.172V137.353Z" fill="#29333F"/>
<path d="M62.7417 137.746L62.4799 137.582V131.401L62.7417 131.565V137.746Z" fill="#29333F"/>
<path d="M60.4834 136.438L60.1888 136.274V130.093L60.4834 130.257V136.438Z" fill="#29333F"/>
<path d="M54.2649 132.84L53.9703 132.677V126.496L54.2649 126.659V132.84Z" fill="#29333F"/>
<path d="M55.2141 133.396L54.7559 133.135V126.954L55.2141 127.215V133.396Z" fill="#29333F"/>
<path d="M71.1531 142.586L70.1713 142.03V135.849L71.1531 136.405V142.586Z" fill="#29333F"/>
<path d="M71.9059 143.044L71.644 142.88V136.699L71.9059 136.863V143.044Z" fill="#29333F"/>
<path d="M72.5931 143.436L72.2986 143.273V137.092L72.5931 137.255V143.436Z" fill="#29333F"/>
<path d="M73.2805 143.829L72.986 143.665V137.484L73.2805 137.648V143.829Z" fill="#29333F"/>
<path d="M68.6985 141.18L68.4039 141.016V134.835L68.6985 134.999V141.18Z" fill="#29333F"/>
<path d="M69.6475 141.736L69.1893 141.474V135.293L69.6475 135.555V141.736Z" fill="#29333F"/>
<path d="M64.1491 138.531L63.1672 137.975V131.827L64.1491 132.382V138.531Z" fill="#29333F"/>
<path d="M64.8691 138.956L64.5746 138.792V132.611L64.8691 132.808V138.956Z" fill="#29333F"/>
<path d="M65.6219 139.414L65.3601 139.25V133.069L65.6219 133.233V139.414Z" fill="#29333F"/>
<path d="M66.571 139.937L66.1455 139.708V133.527L66.571 133.789V139.937Z" fill="#29333F"/>
<path d="M61.3344 136.928L60.8762 136.667V130.486L61.3344 130.747V136.928Z" fill="#29333F"/>
<path d="M75.1133 144.875L74.1315 144.319V138.138L75.1133 138.694V144.875Z" fill="#29333F"/>
<path d="M79.0408 147.132L78.059 146.576V140.395L79.0408 140.951V147.132Z" fill="#29333F"/>
<path d="M75.8334 145.3L75.5388 145.137V138.956L75.8334 139.119V145.3Z" fill="#29333F"/>
<path d="M79.8263 147.589L79.5317 147.426V141.245L79.8263 141.409V147.589Z" fill="#29333F"/>
<path d="M80.4809 147.982L80.2191 147.818V141.637L80.4809 141.801V147.982Z" fill="#29333F"/>
<path d="M81.1682 148.374L80.8737 148.211V142.03L81.1682 142.193V148.374Z" fill="#29333F"/>
<path d="M84.4085 150.238L84.1139 150.075V143.894L84.4085 144.057V150.238Z" fill="#29333F"/>
<path d="M85.0957 150.631L84.8011 150.467V144.286L85.0957 144.45V150.631Z" fill="#29333F"/>
<path d="M82.8374 149.323L82.5428 149.159V142.978L82.8374 143.142V149.323Z" fill="#29333F"/>
<path d="M76.5862 145.725L76.3243 145.562V139.381L76.5862 139.544V145.725Z" fill="#29333F"/>
<path d="M77.5353 146.281L77.1099 146.02V139.839L77.5353 140.1V146.281Z" fill="#29333F"/>
<path d="M83.6884 149.813L83.2302 149.552V143.371L83.6884 143.632V149.813Z" fill="#29333F"/>
<path d="M82.1501 148.93L81.6919 148.669V142.52L82.1501 142.749V148.93Z" fill="#29333F"/>
<path d="M228.875 181.732C227.599 179.508 225.831 177.578 223.867 176.434L144.957 130.944C142.994 129.799 141.226 129.701 139.95 130.453C138.673 131.205 137.855 132.775 137.855 135.031V226.077C137.855 228.334 138.641 230.852 139.95 233.076C141.226 235.299 142.994 237.229 144.957 238.373L223.867 283.864C225.831 285.008 227.599 285.106 228.875 284.354C230.151 283.602 230.97 282.032 230.97 279.776V188.73C230.97 186.473 230.151 183.955 228.875 181.732Z" fill="#D4DBDF"/>
<path d="M257.415 164.889C256.138 162.666 254.371 160.736 252.407 159.591L173.497 114.069C171.534 112.924 169.766 112.826 168.49 113.578L139.983 130.42C141.259 129.668 143.026 129.799 144.99 130.911L223.867 176.466C225.831 177.611 227.599 179.54 228.875 181.764C230.151 183.988 230.97 186.506 230.97 188.763V279.808C230.97 282.065 230.184 283.667 228.875 284.387L257.382 267.545C258.659 266.792 259.477 265.223 259.477 262.966V171.921C259.477 169.631 258.691 167.113 257.415 164.889Z" fill="#D4DBDF"/>
<path d="M230.97 188.73V279.776C230.97 282.032 230.184 283.635 228.875 284.354L257.382 267.512C258.659 266.76 259.477 265.19 259.477 262.934V171.888L230.97 188.73Z" fill="#BBC2C6"/>
<path d="M173.497 114.069C171.534 112.924 169.766 112.826 168.49 113.578L139.983 130.42C141.259 129.668 143.026 129.799 144.99 130.911L223.867 176.466L252.375 159.624L173.497 114.069Z" fill="#EEF5F9"/>
<path opacity="0.5" d="M257.415 164.889L228.908 181.732C230.184 183.955 231.002 186.473 231.002 188.73L259.509 171.888C259.477 169.631 258.691 167.113 257.415 164.889Z" fill="#BBC2C6"/>
<path opacity="0.5" d="M252.375 159.591L223.867 176.466C225.831 177.611 227.599 179.54 228.875 181.764L257.382 164.922C256.106 162.666 254.338 160.736 252.375 159.591Z" fill="#EEF5F9"/>
<path opacity="0.3" d="M205.31 195.336C199.975 186.081 192.578 178.003 184.396 173.294C177.327 169.206 170.814 168.323 165.708 170.187C161.486 173.654 158.966 179.737 158.966 187.978C158.966 197.396 162.271 207.829 167.639 217.084C172.974 226.339 180.37 234.416 188.553 239.126C195.622 243.214 202.135 244.096 207.241 242.232C211.463 238.766 213.983 232.683 213.983 224.442C213.983 215.023 210.678 204.591 205.31 195.336Z" fill="#BBC2C6"/>
<path d="M188.553 239.158L184.429 241.513C192.578 246.222 199.975 246.68 205.343 243.573C205.997 243.181 206.652 242.756 207.241 242.265C202.135 244.096 195.622 243.246 188.553 239.158Z" fill="#EEF5F9"/>
<path d="M154.842 190.332L158.966 187.978C158.966 179.737 161.486 173.621 165.708 170.187C164.922 170.482 164.202 170.809 163.482 171.234C158.147 174.308 154.842 180.914 154.842 190.332Z" fill="#BBC2C6"/>
<path opacity="0.5" d="M167.639 217.116L163.515 219.471C168.85 228.726 176.247 236.804 184.429 241.513L188.553 239.158C180.37 234.449 172.974 226.371 167.639 217.116Z" fill="#EEF5F9"/>
<path opacity="0.5" d="M158.966 188.011L154.842 190.365C154.842 199.784 158.147 210.216 163.515 219.471L167.639 217.116C162.304 207.861 158.966 197.429 158.966 188.011Z" fill="#BBC2C6"/>
<path opacity="0.2" d="M205.31 195.336C199.975 186.081 192.578 178.003 184.396 173.294C176.247 168.585 168.85 168.127 163.482 171.234C162.468 171.822 161.551 172.509 160.667 173.36C160.897 173.196 161.126 173.065 161.355 172.934C166.69 169.86 174.086 170.285 182.269 174.995C190.418 179.704 197.815 187.782 203.183 197.037C208.518 206.292 211.856 216.724 211.856 226.142C211.856 233.795 209.663 239.583 205.997 243.148C210.939 239.91 213.983 233.468 213.983 224.475C213.983 215.023 210.678 204.591 205.31 195.336Z" fill="black"/>
<path d="M176.214 195.14C175.592 194.061 174.741 193.112 173.792 192.589C172.843 192.033 171.992 192 171.37 192.36C170.748 192.72 170.355 193.505 170.355 194.584C170.355 195.696 170.748 196.906 171.37 197.985C171.992 199.064 172.843 200.013 173.792 200.536C174.741 201.092 175.592 201.125 176.214 200.765C176.836 200.405 177.228 199.62 177.228 198.541C177.228 197.429 176.836 196.219 176.214 195.14Z" fill="#414E5F"/>
<path d="M205.735 212.146C205.114 211.066 204.263 210.118 203.314 209.595C202.364 209.039 201.513 209.006 200.892 209.366C200.27 209.725 199.877 210.51 199.877 211.59C199.877 212.701 200.27 213.911 200.892 214.991C201.513 216.07 202.364 217.018 203.314 217.542C204.263 218.097 205.114 218.13 205.735 217.77C206.357 217.411 206.75 216.626 206.75 215.547C206.717 214.435 206.357 213.225 205.735 212.146Z" fill="#414E5F"/>
<path d="M190.975 203.643C190.353 202.563 189.502 201.615 188.553 201.092C187.604 200.536 186.753 200.503 186.131 200.863C185.509 201.223 185.116 202.008 185.116 203.087C185.116 204.199 185.509 205.409 186.131 206.488C186.753 207.567 187.604 208.515 188.553 209.039C189.502 209.595 190.353 209.627 190.975 209.268C191.596 208.908 191.989 208.123 191.989 207.044C191.989 205.932 191.596 204.722 190.975 203.643Z" fill="#BBC2C6"/>
<path d="M190.451 203.97C189.96 203.119 189.305 202.4 188.553 201.975C187.8 201.55 187.145 201.517 186.654 201.779C186.163 202.073 185.869 202.662 185.869 203.512C185.869 204.362 186.163 205.311 186.654 206.161C187.145 207.011 187.8 207.731 188.553 208.156C189.305 208.581 189.96 208.614 190.451 208.352C190.942 208.058 191.236 207.469 191.236 206.619C191.236 205.736 190.942 204.82 190.451 203.97Z" fill="#889AA5"/>
<path d="M190.516 205.801L188.88 204.853V202.989L188.225 202.629V204.493L186.622 203.545V204.329L188.225 205.245V207.109L188.88 207.502V205.638L190.516 206.553V205.801Z" fill="#62747F"/>
<path d="M270.277 88.5602C262.881 75.7733 252.669 64.5888 241.41 58.1136C230.119 51.6056 219.907 50.9843 212.543 55.2684L205.604 59.2909C198.208 63.5423 193.626 72.6992 193.626 85.7151C193.626 98.7309 198.208 113.153 205.572 125.94C212.969 138.727 223.18 149.911 234.439 156.419C245.73 162.927 255.942 163.549 263.306 159.264L270.245 155.242C277.641 150.991 282.223 141.834 282.223 128.818C282.256 115.769 277.674 101.347 270.277 88.5602Z" fill="#FFB710"/>
<path d="M263.339 92.5827C255.942 79.7957 245.73 68.6113 234.472 62.136C223.18 55.6281 212.969 55.0067 205.604 59.2909C198.208 63.5423 193.626 72.6992 193.626 85.715C193.626 98.7309 198.208 113.153 205.572 125.94C212.969 138.727 223.18 149.911 234.439 156.419C245.73 162.927 255.942 163.549 263.306 159.264C270.703 155.013 275.285 145.856 275.285 132.84C275.318 119.792 270.735 105.37 263.339 92.5827Z" fill="#F8A017"/>
<path d="M275.318 132.808C275.318 145.823 270.736 154.948 263.339 159.232L270.277 155.209C277.674 150.958 282.256 141.801 282.256 128.785L275.318 132.808Z" fill="#DE7B04"/>
<path d="M212.543 55.2357L205.604 59.2582C213.001 55.0067 223.213 55.5954 234.472 62.1033L241.41 58.0808C230.119 51.6056 219.907 50.9843 212.543 55.2357Z" fill="#FFDE36"/>
<path opacity="0.5" d="M241.41 58.1135L234.472 62.136C245.763 68.6439 255.975 79.7957 263.339 92.5827L270.277 88.5602C262.913 75.7732 252.702 64.6215 241.41 58.1135Z" fill="#FFDE36"/>
<path opacity="0.5" d="M270.277 88.5602L263.339 92.5827C270.736 105.37 275.318 119.792 275.318 132.808L282.256 128.785C282.256 115.769 277.674 101.347 270.277 88.5602Z" fill="#DE7B04"/>
<g opacity="0.2">
<path d="M254.666 122.702L231.853 109.523L249.494 84.4723L232.377 74.5959L216.962 105.664L235.715 116.489L222.133 143.894L254.666 122.702Z" fill="black"/>
</g>
<path d="M252.735 121.394L229.922 108.215L247.563 83.1315L230.446 73.2551L215.031 104.356L233.784 115.181L220.202 142.586L252.735 121.394Z" fill="#D4DBDF"/>
<path d="M232.311 106.841L229.922 108.215L252.734 121.394L255.124 120.021L232.311 106.841Z" fill="#EEF5F9"/>
<path d="M249.985 81.7579L232.835 71.8816L230.446 73.2551L247.563 83.1315L249.985 81.7579Z" fill="#EEF5F9"/>
<path d="M252.734 121.394L220.202 142.586L222.591 141.212L255.124 120.021L252.734 121.394Z" fill="#BBC2C6"/>
<path d="M247.563 83.1315L229.922 108.215L232.311 106.841L249.985 81.7579L247.563 83.1315Z" fill="#BBC2C6"/>
<path opacity="0.2" d="M212.543 243.9C211.79 242.592 210.776 241.48 209.63 240.826L144.827 203.414C143.681 202.76 142.666 202.694 141.914 203.119C141.161 203.545 140.703 204.46 140.703 205.801V235.888L213.754 278.042V247.955C213.754 246.647 213.296 245.176 212.543 243.9Z" fill="black"/>
<path d="M204.688 248.937C203.935 247.628 202.921 246.517 201.775 245.862L136.971 208.483C135.826 207.829 134.811 207.763 134.059 208.188L133.208 208.679C132.455 209.104 131.997 210.02 131.997 211.361V255.281C131.997 256.589 132.455 258.061 133.208 259.336C133.96 260.644 134.975 261.756 136.12 262.41L200.924 299.79C202.07 300.444 203.084 300.509 203.837 300.084L204.688 299.594C205.441 299.169 205.899 298.253 205.899 296.912V253.024C205.899 251.684 205.441 250.245 204.688 248.937Z" fill="#E54B5A"/>
<path d="M203.837 249.427C203.084 248.119 202.07 247.007 200.924 246.353L136.12 208.973C134.975 208.319 133.96 208.254 133.208 208.679C132.455 209.104 131.997 210.02 131.997 211.361V255.281C131.997 256.589 132.455 258.061 133.208 259.336C133.96 260.644 134.975 261.756 136.12 262.41L200.924 299.79C202.07 300.444 203.084 300.509 203.837 300.084C204.59 299.659 205.048 298.743 205.048 297.403V253.515C205.048 252.174 204.59 250.735 203.837 249.427Z" fill="#00AEC7"/>
<path d="M137.004 208.483C135.859 207.829 134.844 207.763 134.091 208.188L133.24 208.679C133.993 208.254 135.008 208.319 136.153 208.973L200.957 246.353L201.808 245.862L137.004 208.483Z" fill="#1BD0EA"/>
<path d="M205.048 253.515V297.468C205.048 298.776 204.59 299.725 203.837 300.15L204.688 299.659C205.441 299.234 205.899 298.318 205.899 296.977V253.024L205.048 253.515Z" fill="#0A9DB3"/>
<path d="M201.775 245.862L200.924 246.353C202.07 247.007 203.084 248.152 203.837 249.427L204.688 248.937C203.968 247.661 202.921 246.517 201.775 245.862Z" fill="#0AB9D2"/>
<path d="M204.688 248.937L203.837 249.427C204.59 250.735 205.048 252.174 205.048 253.482L205.899 252.992C205.899 251.684 205.441 250.245 204.688 248.937Z" fill="#06B0C9"/>
<path d="M148.688 248.838L136.906 242.036C136.382 241.742 135.957 241.022 135.957 240.401V237.294C135.957 236.706 136.382 236.444 136.906 236.738L148.688 243.541C149.212 243.835 149.638 244.554 149.638 245.176V248.282C149.638 248.904 149.212 249.133 148.688 248.838Z" fill="#EEF5F9"/>
<path d="M158.016 269.016L137.102 256.949C136.48 256.589 135.99 255.739 135.99 255.019V253.351C135.99 252.632 136.48 252.338 137.102 252.697L158.016 264.765C158.638 265.125 159.129 265.975 159.129 266.694V268.362C159.129 269.082 158.638 269.343 158.016 269.016Z" fill="#EEF5F9"/>
<path d="M199.124 257.243L178.21 245.176C177.588 244.816 177.097 243.966 177.097 243.246V241.578C177.097 240.859 177.588 240.565 178.21 240.924L199.124 252.992C199.746 253.351 200.237 254.202 200.237 254.921V256.589C200.237 257.309 199.746 257.603 199.124 257.243Z" fill="#EEF5F9"/>
<path d="M141.75 251.324L136.84 248.479C136.513 248.282 136.251 247.857 136.251 247.465V246.353C136.251 245.993 136.513 245.83 136.84 246.026L141.75 248.871C142.077 249.067 142.339 249.492 142.339 249.885V250.997C142.306 251.357 142.044 251.52 141.75 251.324Z" fill="#EEF5F9"/>
<path d="M165.839 258.715L154.056 251.913C153.532 251.618 153.107 250.899 153.107 250.277V247.171C153.107 246.582 153.532 246.32 154.056 246.615L165.839 253.417C166.362 253.711 166.788 254.431 166.788 255.052V258.159C166.788 258.78 166.362 259.042 165.839 258.715Z" fill="#EEF5F9"/>
<path d="M182.989 268.624L171.206 261.822C170.682 261.527 170.257 260.808 170.257 260.186V257.08C170.257 256.491 170.682 256.229 171.206 256.524L182.989 263.326C183.512 263.62 183.938 264.34 183.938 264.961V268.068C183.905 268.689 183.512 268.918 182.989 268.624Z" fill="#EEF5F9"/>
<path d="M200.106 278.5L188.323 271.698C187.8 271.404 187.374 270.684 187.374 270.063V266.956C187.374 266.367 187.8 266.106 188.323 266.4L200.106 273.202C200.63 273.497 201.055 274.216 201.055 274.837V277.944C201.055 278.566 200.63 278.795 200.106 278.5Z" fill="#EEF5F9"/>
<path d="M145.154 221.891L137.691 217.574C136.742 217.018 135.99 217.476 135.99 218.555V227.156C135.99 228.235 136.742 229.576 137.691 230.1L145.154 234.416C146.103 234.972 146.856 234.514 146.856 233.435V224.834C146.856 223.755 146.103 222.414 145.154 221.891Z" fill="#EEF5F9"/>
<path d="M122.178 190.038C122.178 191.248 121.196 192.229 119.985 192.229C118.774 192.229 117.792 191.248 117.792 190.038C117.792 188.828 118.774 187.847 119.985 187.847C121.196 187.847 122.178 188.828 122.178 190.038Z" fill="#3F80B1"/>
<path opacity="0.8" d="M119.985 202.989C121.196 202.989 122.178 202.008 122.178 200.798C122.178 199.587 121.196 198.606 119.985 198.606C118.774 198.606 117.792 199.587 117.792 200.798C117.792 202.008 118.774 202.989 119.985 202.989Z" fill="#3F80B1"/>
<path opacity="0.6" d="M119.985 213.748C121.196 213.748 122.178 212.767 122.178 211.557C122.178 210.347 121.196 209.366 119.985 209.366C118.774 209.366 117.792 210.347 117.792 211.557C117.792 212.767 118.774 213.748 119.985 213.748Z" fill="#3F80B1"/>
<path opacity="0.4" d="M122.178 222.316C122.178 223.526 121.196 224.507 119.985 224.507C118.774 224.507 117.792 223.526 117.792 222.316C117.792 221.106 118.774 220.125 119.985 220.125C121.196 220.125 122.178 221.106 122.178 222.316Z" fill="#3F80B1"/>
<path opacity="0.2" d="M122.178 233.076C122.178 234.286 121.196 235.267 119.985 235.267C118.774 235.267 117.792 234.286 117.792 233.076C117.792 231.865 118.774 230.884 119.985 230.884C121.196 230.884 122.178 231.865 122.178 233.076Z" fill="#3F80B1"/>
<path opacity="0.5" d="M119.985 265.615C117.858 264.372 116.123 265.386 116.123 267.839C116.123 270.292 117.858 273.3 119.985 274.51C122.112 275.753 123.847 274.739 123.847 272.287C123.847 269.834 122.112 266.858 119.985 265.615ZM119.985 272.941C118.61 272.156 117.498 270.226 117.498 268.657C117.498 267.087 118.61 266.433 119.985 267.218C121.36 268.003 122.473 269.932 122.473 271.502C122.473 273.072 121.36 273.726 119.985 272.941Z" fill="#3F80B1"/>
<path opacity="0.5" d="M170.846 28.4191C168.719 27.1763 166.984 28.1901 166.984 30.6429C166.984 33.0956 168.719 36.1043 170.846 37.3143C172.974 38.557 174.708 37.5432 174.708 35.0905C174.708 32.6378 172.974 29.6618 170.846 28.4191ZM170.846 35.7446C169.472 34.9597 168.359 33.0302 168.359 31.4605C168.359 29.8907 169.472 29.2366 170.846 30.0215C172.221 30.8064 173.334 32.7359 173.334 34.3056C173.301 35.8754 172.188 36.5294 170.846 35.7446Z" fill="#3F80B1"/>
<path opacity="0.5" d="M31.7146 162.96L29.0308 161.423V158.316C29.0308 157.891 28.7362 157.335 28.3435 157.106C27.9507 156.877 27.6561 157.073 27.6561 157.498V160.605L24.9723 159.068C24.5796 158.839 24.285 159.036 24.285 159.461C24.285 159.886 24.5796 160.442 24.9723 160.671L27.6561 162.208V165.315C27.6561 165.74 27.9507 166.296 28.3435 166.525C28.7362 166.753 29.0308 166.557 29.0308 166.132V163.025L31.7146 164.562C32.1073 164.791 32.4019 164.595 32.4019 164.17C32.4019 163.712 32.1073 163.156 31.7146 162.96Z" fill="#3F80B1"/>
</g>
<defs>
<linearGradient id="paint0_linear_110_512" x1="68.5061" y1="124.714" x2="98.7763" y2="124.714" gradientUnits="userSpaceOnUse">
<stop stop-color="#D4DBDF"/>
<stop offset="1" stop-color="#BBC2C6"/>
</linearGradient>
<linearGradient id="paint1_linear_110_512" x1="66.9089" y1="118.574" x2="44.6628" y2="118.574" gradientUnits="userSpaceOnUse">
<stop stop-color="#C1060B"/>
<stop offset="1" stop-color="#9B0000"/>
</linearGradient>
<clipPath id="clip0_110_512">
<rect width="316" height="301" fill="white"/>
</clipPath>
</defs>
</svg>
