<svg width="24" height="24" viewBox="0 0 24 24" fill="none" xmlns="http://www.w3.org/2000/svg">
<path d="M11.9999 21C4.4999 21 0.299902 12.8 0.0999023 12.4C-9.76548e-05 12.1 -9.76548e-05 11.8 0.0999023 11.5C0.299902 11.2 4.4999 3 11.9999 3C19.4999 3 23.6999 11.2 23.8999 11.6C23.9999 11.9 23.9999 12.2 23.8999 12.5C23.6999 12.8 19.4999 21 11.9999 21ZM2.0999 12C2.9999 13.6 6.5999 19 11.9999 19C17.3999 19 20.8999 13.6 21.8999 12C20.9999 10.4 17.3999 5 11.9999 5C6.5999 5 3.0999 10.4 2.0999 12Z" fill="#214E9D"/>
<path d="M12 16C9.8 16 8 14.2 8 12C8 9.8 9.8 8 12 8C14.2 8 16 9.8 16 12C16 14.2 14.2 16 12 16ZM12 10C10.9 10 10 10.9 10 12C10 13.1 10.9 14 12 14C13.1 14 14 13.1 14 12C14 10.9 13.1 10 12 10Z" fill="#214E9D"/>
</svg>
