<svg width="25" height="24" viewBox="0 0 25 24" fill="none" xmlns="http://www.w3.org/2000/svg">
<path fill-rule="evenodd" clip-rule="evenodd" d="M17.0356 0.0703125C17.4235 2.57449 15.1825 5.43334 12.6238 5.33661C12.1928 3.34832 14.0405 0.387365 17.0356 0.0703125ZM16.7071 22.0703H17.3104C18.5925 21.8231 19.4005 20.9311 20.1385 19.9745C21.0112 18.846 21.7277 17.6262 22.2879 16.315L22.2879 16.315C22.2987 16.2881 22.3094 16.2612 22.3202 16.2183C20.4725 15.4176 19.3951 14.0204 19.2335 12.0213C19.0719 10.0116 19.95 8.49615 21.7115 7.42677C21.6088 7.32609 21.5091 7.2236 21.4099 7.12172C21.2128 6.9191 21.018 6.71889 20.8065 6.5401C19.7561 5.65342 18.5548 5.15366 17.1542 5.22352C16.4377 5.26114 15.7644 5.46534 15.091 5.70716C14.6331 5.87375 14.1645 6.02421 13.6904 6.11557C13.017 6.24454 12.3706 6.04571 11.7296 5.84151C11.6485 5.81527 11.5676 5.78885 11.4867 5.76243C10.9545 5.58868 10.4236 5.41537 9.87649 5.29876C8.92301 5.09455 8.00185 5.25039 7.12917 5.66417C5.87941 6.24991 4.92593 7.15271 4.26873 8.36181C3.80546 9.22161 3.58998 10.1513 3.52534 11.1186C3.35296 13.7625 4.06942 16.1914 5.38921 18.4591C5.89557 19.3404 6.47197 20.1787 7.1992 20.9042C7.75405 21.4631 8.37355 21.9091 9.17619 22.0434C9.18427 22.0434 9.19236 22.0525 9.20044 22.0616C9.20313 22.0646 9.20582 22.0676 9.20852 22.0703H9.89804C10.469 21.8607 11.0401 21.6565 11.6111 21.4523C12.8123 21.0171 13.9975 21.0278 15.1826 21.5114C15.5551 21.6673 15.9336 21.7993 16.3136 21.9319C16.4446 21.9777 16.5759 22.0235 16.7071 22.0703Z" fill="white"/>
</svg>
