<svg width="25" height="16" viewBox="0 0 25 16" fill="none" xmlns="http://www.w3.org/2000/svg">
<g clip-path="url(#clip0_2003_260)">
<path d="M24.7321 14.2037C24.7241 14.1552 24.7175 14.1081 24.7082 14.0596C24.659 13.7637 24.5979 13.4717 24.5261 13.1836C24.2974 12.2646 23.9574 11.376 23.5133 10.5371C22.9405 9.45541 22.2017 8.46733 21.323 7.60768C21.121 7.40951 20.9119 7.21876 20.6957 7.03542C20.2286 6.63561 19.7309 6.27181 19.2071 5.94722L19.2204 5.92365L19.9448 4.6927L20.6518 3.49057L21.1595 2.62629C21.1989 2.55953 21.231 2.48887 21.2552 2.41546C21.3198 2.21776 21.3253 2.00595 21.2712 1.80523C21.258 1.75663 21.2416 1.70895 21.222 1.66249C21.2019 1.61738 21.1789 1.57363 21.1529 1.53154C21.0595 1.37723 20.9284 1.24846 20.7715 1.15702C20.5683 1.03785 20.3315 0.986415 20.0963 1.01036C20.0393 1.01619 19.9829 1.02626 19.9275 1.04048C19.6473 1.11507 19.4084 1.29583 19.2629 1.54333L18.7552 2.40761L18.0482 3.60974L17.3238 4.84068L17.2441 4.97163L17.1351 4.92973C15.7679 4.41705 14.317 4.15521 12.8541 4.15711H12.7305C11.4256 4.16858 10.1314 4.38973 8.89877 4.81187C8.75966 4.85989 8.62188 4.91008 8.48543 4.96246L8.411 4.83151L7.68665 3.60057L6.97958 2.39844L6.47187 1.53416C6.43423 1.46739 6.38969 1.40464 6.33896 1.3469C6.19647 1.19297 6.01184 1.08292 5.80733 1.03C5.75148 1.0157 5.69461 1.00563 5.63721 0.999881C5.56824 0.993529 5.49883 0.993529 5.42987 0.999881C5.25631 1.01463 5.08879 1.06982 4.94113 1.16089C4.79346 1.25196 4.66989 1.37631 4.58059 1.52369C4.55449 1.5657 4.5314 1.60946 4.51147 1.65464C4.49158 1.70098 4.47514 1.74868 4.4623 1.79737C4.40834 1.99811 4.41387 2.20987 4.47824 2.40761C4.50265 2.48096 4.53473 2.55161 4.57394 2.61844L5.08164 3.48272L5.79005 4.68485L6.5144 5.91579V5.92627C6.02562 6.22609 5.55925 6.55999 5.11886 6.92543C4.85305 7.14193 4.60096 7.36891 4.36261 7.60637C3.88034 8.07884 3.4393 8.59049 3.04417 9.13588C2.16115 10.3557 1.52158 11.7297 1.15953 13.1849C1.08776 13.473 1.02707 13.765 0.977449 14.061C0.969475 14.1081 0.961494 14.1566 0.954849 14.205C0.928267 14.3796 0.905235 14.5542 0.885742 14.7288H24.7986C24.7791 14.5542 24.756 14.3796 24.7295 14.205L24.7321 14.2037Z" fill="white"/>
<path d="M19.0636 11.4655C19.5421 11.1512 19.6112 10.4258 19.2191 9.84434C18.8271 9.26291 18.12 9.04554 17.6428 9.35982C17.1657 9.6741 17.0953 10.3996 17.4873 10.981C17.8794 11.5624 18.5852 11.7785 19.0636 11.4655Z" fill="#214E9D"/>
<path d="M8.22229 10.9825C8.62102 10.4011 8.54526 9.67301 8.06679 9.36135C7.58832 9.04968 6.88258 9.26444 6.48917 9.84586C6.09577 10.4273 6.16621 11.1554 6.64468 11.467C7.12314 11.7787 7.82889 11.5639 8.22229 10.9825Z" fill="#214E9D"/>
</g>
<defs>
<clipPath id="clip0_2003_260">
<rect width="25" height="15" fill="white" transform="translate(0 0.5)"/>
</clipPath>
</defs>
</svg>
