<svg width="24" height="24" viewBox="0 0 24 24" fill="none" xmlns="http://www.w3.org/2000/svg">
<path d="M20.8 3.19995H3.2C1.99 3.19995 1.011 4.18995 1.011 5.39995L1 18.5999C1 19.8099 1.99 20.7999 3.2 20.7999H20.8C22.01 20.7999 23 19.8099 23 18.5999V5.39995C23 4.18995 22.01 3.19995 20.8 3.19995ZM20.36 7.87495L12.583 12.737C12.231 12.957 11.769 12.957 11.417 12.737L3.64 7.87495C3.365 7.69895 3.2 7.40195 3.2 7.08295C3.2 6.34595 4.003 5.90595 4.63 6.29095L12 10.9L19.37 6.29095C19.997 5.90595 20.8 6.34595 20.8 7.08295C20.8 7.40195 20.635 7.69895 20.36 7.87495Z" fill="white"/>
</svg>
