<svg width="25" height="24" viewBox="0 0 25 24" fill="none" xmlns="http://www.w3.org/2000/svg">
<path fill-rule="evenodd" clip-rule="evenodd" d="M17.4667 7.52252L14.2839 10.6242L3.55176 0.161336C3.92302 0.142966 4.29842 0.219706 4.63976 0.410225L17.4667 7.52252ZM1.59375 2.23782C1.59375 1.88374 1.68471 1.55041 1.84175 1.25293L12.869 12.0032L1.84175 22.7528C1.68471 22.4568 1.59375 22.122 1.59375 21.7691V2.23782ZM22.2536 10.1767L19.2702 8.52246L15.699 12.0042L19.2696 15.4845L22.2536 13.8303C22.9233 13.4599 23.3224 12.7761 23.3224 12.0033C23.3224 11.2306 22.923 10.5471 22.2536 10.1767ZM3.55371 23.842L14.2838 13.3833L17.4657 16.4849L4.63964 23.596C4.32704 23.7688 3.98779 23.8556 3.65001 23.8556C3.63215 23.8556 3.61473 23.8521 3.59728 23.8486C3.58288 23.8458 3.56844 23.8429 3.55371 23.842Z" fill="#214E9D"/>
</svg>
