<svg width="24" height="24" viewBox="0 0 24 24" fill="none" xmlns="http://www.w3.org/2000/svg">
<path fill-rule="evenodd" clip-rule="evenodd" d="M23.989 3.41332C24.174 1.31087 21.9539 2.17655 21.9539 2.17655C20.3146 2.85517 18.624 3.54479 16.9151 4.24185C11.6164 6.40319 6.14219 8.63614 1.47894 10.8337C-1.0496 11.7613 0.430529 12.6889 0.430529 12.6889L4.4392 13.9256C6.28931 14.4821 7.27609 13.8638 7.27609 13.8638L15.9101 7.98925C18.9936 5.8868 18.2536 7.61826 17.5136 8.36029L11.038 14.5439C10.0513 15.4097 10.5446 16.1517 10.9764 16.5227C12.1998 17.6022 15.2096 19.5774 16.5236 20.4396C16.8655 20.664 17.0926 20.813 17.1435 20.8513C17.4519 21.0987 19.117 22.2117 20.2271 21.9644C21.3372 21.717 21.4605 20.2948 21.4605 20.2948L22.9406 10.5864C23.1626 8.90096 23.4173 7.28096 23.6206 5.98708C23.8127 4.76495 23.9591 3.83385 23.989 3.41332Z" fill="white"/>
</svg>
