<svg width="243" height="48" viewBox="0 0 243 48" fill="none" xmlns="http://www.w3.org/2000/svg">
<path d="M20.7707 24.8419H2.38739C1.0689 24.8419 0 25.9107 0 27.2293V45.6126C0 46.9311 1.0689 48 2.38739 48H20.7707C22.0892 48 23.1581 46.9311 23.1581 45.6126V27.2293C23.1581 25.9107 22.0892 24.8419 20.7707 24.8419Z" fill="url(#paint0_radial_2006_641)"/>
<path d="M27.0326 48V47.9913H26.9455V47.9826H26.8932V47.9739H26.8322V47.9651H26.7799V47.9564H26.7276V47.9477H26.6928V47.939H26.6579V47.9303H26.6318V47.9216H26.5969V47.9129H26.562V47.9041H26.5272V47.8954H26.501V47.8867H26.4749V47.878H26.4487V47.8693H26.4313V47.8606H26.4052V47.8519H26.379V47.8431H26.3529V47.8344H26.3355V47.8257H26.3093V47.817H26.2919V47.8083H26.2657V47.7996H26.2483V47.7908H26.2309V47.7821H26.2135V47.7734H26.196V47.7647H26.1786V47.756H26.1612V47.7473H26.1437V47.7386H26.1263V47.7298H26.1089V47.7211H26.0914V47.7124H26.074V47.7037H26.0566V47.695H26.0479V47.6863H26.0304V47.6776H26.013V47.6688H26.0043V47.6601H25.9869V47.6514H25.9694V47.6427H25.9607V47.634H25.9433V47.6253H25.9346V47.6166H25.9172V47.6078H25.8997V47.5991H25.891V47.5904H25.8736V47.5817H25.8649V47.573H25.8562V47.5643H25.8387V47.5556H25.83V47.5468H25.8213V47.5381H25.8039V47.5294H25.7952V47.5207H25.7864V47.512H25.769V47.5033H25.7603V47.4946H25.7516V47.4858H25.7342V47.4771H25.7254V47.4684H25.7167V47.4597H25.6993V47.451H25.6906V47.4423H25.6819V47.4336H25.6731V47.4248H25.6644V47.4161H25.6557V47.4074H25.647V47.3987H25.6383V47.39H25.6296V47.3813H25.6121V47.3725H25.6034V47.3638H25.5947V47.3551H25.586V47.3464H25.5773V47.3377H25.5686V47.329H25.5599V47.3203H25.5511V47.3115H25.5424V47.3028H25.5337V47.2941H25.525V47.2854H25.5163V47.2767H25.5076V47.268H25.4989V47.2593H25.4901V47.2505H25.4814V47.2418H25.4727V47.2331H25.464V47.2157H25.4553V47.207H25.4466V47.1983H25.4379V47.1895H25.4291V47.1808H25.4204V47.1721H25.4117V47.1634H25.403V47.1547H25.3943V47.146H25.3856V47.1285H25.3769V47.1198H25.3681V47.1111H25.3594V47.0937H25.3507V47.085H25.342V47.0763H25.3333V47.0588H25.3246V47.0501H25.3159V47.0414H25.3071V47.024H25.2984V47.0153H25.2897V47.0065H25.281V46.9891H25.2723V46.9804H25.2636V46.9717H25.2548V46.9542H25.2461V46.9455H25.2374V46.9281H25.2287V46.9194H25.22V46.902H25.2113V46.8845H25.2026V46.8758H25.1938V46.8584H25.1851V46.841H25.1764V46.8322H25.1677V46.8148H25.159V46.7974H25.1503V46.7887H25.1416V46.7712H25.1328V46.7625H25.1241V46.7451H25.1154V46.7277H25.1067V46.7015H25.098V46.6841H25.0893V46.6667H25.0806V46.6492H25.0718V46.6318H25.0631V46.6144H25.0544V46.5969H25.0457V46.5795H25.037V46.5621H25.0283V46.5447H25.0196V46.5185H25.0108V46.4924H25.0021V46.4662H24.9934V46.4488H24.9847V46.4227H24.976V46.3965H24.9673V46.3704H24.9586V46.3529H24.9498V46.3268H24.9411V46.2919H24.9324V46.2571H24.9237V46.2222H24.915V46.1874H24.9063V46.1612H24.8976V46.1264H24.8888V46.0828H24.8801V46.0305H24.8714V45.9695H24.8627V45.9085H24.854V45.8475H24.8453V45.7168H24.8365V27.1198H24.8453V26.9891H24.854V26.9281H24.8627V26.8758H24.8714V26.8148H24.8801V26.7538H24.8888V26.719H24.8976V26.6841H24.9063V26.6492H24.915V26.6144H24.9237V26.5795H24.9324V26.5447H24.9411V26.5185H24.9498V26.4924H24.9586V26.4662H24.9673V26.4401H24.976V26.4227H24.9847V26.3965H24.9934V26.3704H25.0021V26.3442H25.0108V26.3268H25.0196V26.3007H25.0283V26.2832H25.037V26.2658H25.0457V26.2484H25.0544V26.2309H25.0631V26.2048H25.0718V26.1874H25.0806V26.1699H25.0893V26.1525H25.098V26.1351H25.1067V26.1176H25.1154V26.1002H25.1241V26.0828H25.1328V26.0654H25.1416V26.0566H25.1503V26.0392H25.159V26.0218H25.1677V26.0131H25.1764V25.9956H25.1851V25.9869H25.1938V25.9695H25.2026V25.9521H25.2113V25.9434H25.22V25.9259H25.2287V25.9085H25.2374V25.8998H25.2461V25.8824H25.2548V25.8736H25.2636V25.8649H25.2723V25.8475H25.281V25.8388H25.2897V25.8214H25.2984V25.8126H25.3071V25.8039H25.3159V25.7865H25.3246V25.7778H25.3333V25.7691H25.342V25.7516H25.3507V25.7429H25.3594V25.7342H25.3681V25.7168H25.3769V25.7081H25.3856V25.6993H25.3943V25.6906H25.403V25.6819H25.4117V25.6732H25.4204V25.6645H25.4291V25.6471H25.4379V25.6383H25.4466V25.6296H25.4553V25.6209H25.464V25.6122H25.4727V25.6035H25.4814V25.5948H25.4901V25.5861H25.4989V25.5773H25.5076V25.5686H25.5163V25.5512H25.525V25.5425H25.5337V25.5338H25.5424V25.5251H25.5511V25.5163H25.5686V25.5076H25.5773V25.4989H25.586V25.4902H25.5947V25.4815H25.6034V25.4728H25.6121V25.4641H25.6209V25.4553H25.6296V25.4466H25.6383V25.4379H25.647V25.4292H25.6644V25.4205H25.6731V25.4118H25.6819V25.4031H25.6906V25.3943H25.6993V25.3856H25.708V25.3769H25.7167V25.3682H25.7342V25.3595H25.7429V25.3508H25.7516V25.342H25.769V25.3333H25.7777V25.3246H25.7864V25.3159H25.8039V25.3072H25.8126V25.2985H25.8213V25.2898H25.8387V25.281H25.8474V25.2723H25.8562V25.2636H25.8736V25.2549H25.8823V25.2462H25.8997V25.2375H25.9084V25.2288H25.9259V25.22H25.9433V25.2113H25.952V25.2026H25.9694V25.1939H25.9782V25.1852H25.9956V25.1765H26.013V25.1678H26.0217V25.159H26.0392V25.1503H26.0566V25.1416H26.0653V25.1329H26.0827V25.1242H26.1002V25.1155H26.1176V25.1068H26.135V25.098H26.1525V25.0893H26.1699V25.0806H26.1873V25.0719H26.2047V25.0632H26.2222V25.0545H26.2483V25.0458H26.2657V25.037H26.2832V25.0283H26.3006V25.0196H26.3267V25.0109H26.3442V25.0022H26.3703V24.9935H26.3965V24.9848H26.4226V24.976H26.44V24.9673H26.4662V24.9586H26.4923V24.9499H26.5098V24.9412H26.5446V24.9325H26.5795V24.9237H26.6143V24.915H26.6492V24.9063H26.684V24.8976H26.7189V24.8889H26.7538V24.8802H26.8148V24.8715H26.867V24.8627H26.9281V24.854H26.9891V24.8453H27.1111V24.8366H45.7254V24.8453H45.8562V24.854H45.9172V24.8627H45.9782V24.8715H46.0304V24.8802H46.0914V24.8889H46.1263V24.8976H46.1612V24.9063H46.196V24.915H46.2309V24.9237H46.2657V24.9325H46.2919V24.9412H46.3267V24.9499H46.3529V24.9586H46.379V24.9673H46.3965V24.976H46.4226V24.9848H46.4487V24.9935H46.4749V25.0022H46.4923V25.0109H46.5185V25.0196H46.5446V25.0283H46.562V25.037H46.5795V25.0458H46.5969V25.0545H46.6143V25.0632H46.6318V25.0719H46.6492V25.0806H46.6753V25.0893H46.6928V25.098H46.7102V25.1068H46.7276V25.1155H46.745V25.1242H46.7625V25.1329H46.7712V25.1416H46.7886V25.1503H46.806V25.159H46.8148V25.1678H46.8322V25.1765H46.8496V25.1852H46.8583V25.1939H46.8758V25.2026H46.8932V25.2113H46.9019V25.22H46.9193V25.2288H46.9368V25.2375H46.9455V25.2462H46.9629V25.2549H46.9716V25.2636H46.9803V25.2723H46.9978V25.281H47.0065V25.2898H47.0152V25.2985H47.0326V25.3072H47.0413V25.3159H47.0501V25.3246H47.0675V25.3333H47.0762V25.342H47.0849V25.3508H47.1023V25.3595H47.1111V25.3682H47.1198V25.3769H47.1372V25.3856H47.1459V25.3943H47.1546V25.4031H47.1633V25.4118H47.1721V25.4205H47.1808V25.4292H47.1895V25.4379H47.1982V25.4466H47.2156V25.4553H47.2243V25.4641H47.2331V25.4728H47.2418V25.4815H47.2505V25.4902H47.2592V25.4989H47.2679V25.5076H47.2766V25.5163H47.2853V25.5251H47.2941V25.5338H47.3028V25.5425H47.3115V25.5512H47.3202V25.5599H47.3289V25.5686H47.3376V25.5773H47.3463V25.5861H47.3551V25.5948H47.3638V25.6035H47.3725V25.6122H47.3812V25.6209H47.3899V25.6383H47.3986V25.6471H47.4074V25.6558H47.4161V25.6645H47.4248V25.6732H47.4335V25.6819H47.4422V25.6906H47.4509V25.6993H47.4596V25.7081H47.4684V25.7255H47.4771V25.7342H47.4858V25.7429H47.4945V25.7603H47.5032V25.7691H47.5119V25.7778H47.5206V25.7952H47.5294V25.8039H47.5381V25.8126H47.5468V25.8301H47.5555V25.8388H47.5642V25.8475H47.5729V25.8649H47.5816V25.8736H47.5904V25.8824H47.5991V25.8998H47.6078V25.9172H47.6165V25.9259H47.6252V25.9434H47.6339V25.9608H47.6426V25.9695H47.6514V25.9869H47.6601V26.0044H47.6688V26.0131H47.6775V26.0305H47.6862V26.0479H47.6949V26.0566H47.7036V26.0741H47.7124V26.0828H47.7211V26.1089H47.7298V26.1264H47.7385V26.1438H47.7472V26.1612H47.7559V26.1786H47.7647V26.1961H47.7734V26.2135H47.7821V26.2309H47.7908V26.2484H47.7995V26.2658H47.8082V26.2832H47.8169V26.3094H47.8257V26.3268H47.8344V26.3529H47.8431V26.3791H47.8518V26.4052H47.8605V26.4227H47.8692V26.4488H47.8779V26.4749H47.8867V26.5011H47.8954V26.5272H47.9041V26.5534H47.9128V26.5882H47.9215V26.6231H47.9302V26.658H47.9389V26.6928H47.9477V26.7277H47.9564V26.7712H47.9651V26.8322H47.9738V26.8845H47.9825V26.9455H47.9912V27.024H47.9999V45.8214H47.9912V45.8998H47.9825V45.9521H47.9738V46.0131H47.9651V46.0741H47.9564V46.1176H47.9477V46.1525H47.9389V46.1874H47.9302V46.2135H47.9215V46.2484H47.9128V46.2832H47.9041V46.3181H47.8954V46.3442H47.8867V46.3704H47.8779V46.3965H47.8692V46.4139H47.8605V46.4401H47.8518V46.4662H47.8431V46.4837H47.8344V46.5098H47.8257V46.5359H47.8169V46.5534H47.8082V46.5708H47.7995V46.5882H47.7908V46.6144H47.7821V46.6318H47.7734V46.6492H47.7647V46.6667H47.7559V46.6841H47.7472V46.7015H47.7385V46.719H47.7298V46.7364H47.7211V46.7538H47.7124V46.7712H47.7036V46.78H47.6949V46.7974H47.6862V46.8148H47.6775V46.8235H47.6688V46.841H47.6601V46.8584H47.6514V46.8671H47.6426V46.8845H47.6339V46.902H47.6252V46.9107H47.6165V46.9281H47.6078V46.9455H47.5991V46.9542H47.5904V46.963H47.5816V46.9804H47.5729V46.9891H47.5642V46.9978H47.5555V47.0153H47.5468V47.024H47.5381V47.0327H47.5294V47.0501H47.5206V47.0588H47.5119V47.0675H47.5032V47.085H47.4945V47.0937H47.4858V47.1024H47.4771V47.1198H47.4684V47.1285H47.4596V47.1373H47.4509V47.146H47.4422V47.1634H47.4335V47.1721H47.4248V47.1808H47.4161V47.1895H47.4074V47.1983H47.3986V47.207H47.3899V47.2157H47.3812V47.2244H47.3725V47.2331H47.3638V47.2418H47.3551V47.2593H47.3463V47.268H47.3376V47.2767H47.3289V47.2854H47.3202V47.2941H47.3115V47.3028H47.3028V47.3115H47.2941V47.3203H47.2853V47.329H47.2766V47.3377H47.2679V47.3464H47.2592V47.3551H47.2418V47.3638H47.2331V47.3725H47.2243V47.3813H47.2156V47.39H47.2069V47.3987H47.1982V47.4074H47.1895V47.4161H47.1808V47.4248H47.1721V47.4336H47.1633V47.4423H47.1459V47.451H47.1372V47.4597H47.1285V47.4684H47.1198V47.4771H47.1023V47.4858H47.0936V47.4946H47.0849V47.5033H47.0675V47.512H47.0588V47.5207H47.0501V47.5294H47.0326V47.5381H47.0239V47.5468H47.0152V47.5556H46.9978V47.5643H46.989V47.573H46.9803V47.5817H46.9629V47.5904H46.9542V47.5991H46.9455V47.6078H46.928V47.6166H46.9106V47.6253H46.9019V47.634H46.8845V47.6427H46.867V47.6514H46.8583V47.6601H46.8409V47.6688H46.8235V47.6776H46.8148V47.6863H46.7973V47.695H46.7799V47.7037H46.7712V47.7124H46.7538V47.7211H46.7363V47.7298H46.7189V47.7386H46.7015V47.7473H46.684V47.756H46.6666V47.7647H46.6492V47.7734H46.6318V47.7821H46.6056V47.7908H46.5882V47.7996H46.5707V47.8083H46.5533V47.817H46.5359V47.8257H46.5097V47.8344H46.4836V47.8431H46.4662V47.8519H46.44V47.8606H46.4139V47.8693H46.3877V47.878H46.3703V47.8867H46.3442V47.8954H46.318V47.9041H46.2832V47.9129H46.2483V47.9216H46.2135V47.9303H46.1786V47.939H46.1437V47.9477H46.1176V47.9564H46.0653V47.9651H46.013V47.9739H45.952V47.9826H45.891V47.9913H45.8039V48" fill="url(#paint1_radial_2006_641)"/>
<path d="M2.28322 23.1635V23.1547H2.15251V23.146H2.0915V23.1373H2.0305V23.1286H1.9695V23.1199H1.91721V23.1112H1.87364V23.1024H1.83878V23.0937H1.81264V23.085H1.77778V23.0763H1.74292V23.0676H1.70806V23.0589H1.6732V23.0502H1.64706V23.0414H1.62963V23.0327H1.60349V23.024H1.57734V23.0153H1.5512V23.0066H1.53377V22.9979H1.50763V22.9892H1.48148V22.9804H1.45534V22.9717H1.43791V22.963H1.42048V22.9543H1.40305V22.9456H1.38562V22.9369H1.36819V22.9282H1.35076V22.9194H1.33333V22.9107H1.3159V22.902H1.29847V22.8933H1.28105V22.8846H1.2549V22.8759H1.23747V22.8672H1.22876V22.8584H1.21133V22.8497H1.20261V22.841H1.18519V22.8323H1.16776V22.8236H1.15904V22.8149H1.14161V22.8062H1.12418V22.7974H1.11547V22.7887H1.09804V22.78H1.08061V22.7713H1.0719V22.7626H1.05447V22.7539H1.04575V22.7452H1.02832V22.7364H1.01961V22.7277H1.01089V22.719H0.993464V22.7103H0.984749V22.7016H0.976035V22.6929H0.958606V22.6841H0.949891V22.6754H0.941176V22.6667H0.923747V22.658H0.915033V22.6493H0.906318V22.6406H0.888889V22.6319H0.880174V22.6231H0.87146V22.6144H0.85403V22.6057H0.845316V22.597H0.836601V22.5883H0.827887V22.5796H0.819172V22.5709H0.810457V22.5621H0.801743V22.5534H0.793028V22.5447H0.784314V22.536H0.766884V22.5273H0.75817V22.5186H0.749455V22.5099H0.740741V22.5011H0.732026V22.4924H0.723311V22.4837H0.714597V22.475H0.705882V22.4663H0.697168V22.4576H0.688453V22.4489H0.679738V22.4401H0.671024V22.4314H0.662309V22.4227H0.653595V22.414H0.64488V22.4053H0.636165V22.3966H0.627451V22.3879H0.618736V22.3704H0.610022V22.3617H0.601307V22.353H0.592593V22.3443H0.583878V22.3356H0.575163V22.3269H0.566449V22.3181H0.557734V22.3094H0.54902V22.3007H0.540305V22.2833H0.53159V22.2746H0.522876V22.2658H0.514161V22.2484H0.505447V22.2397H0.496732V22.231H0.488017V22.2136H0.479303V22.2048H0.470588V22.1961H0.461874V22.1787H0.453159V22.17H0.444444V22.1613H0.43573V22.1438H0.427015V22.1351H0.418301V22.1264H0.409586V22.109H0.400871V22.1003H0.392157V22.0828H0.383442V22.0654H0.374728V22.0567H0.366013V22.0393H0.357298V22.0306H0.348584V22.0131H0.339869V21.9957H0.331155V21.987H0.32244V21.9696H0.313725V21.9521H0.305011V21.9434H0.296296V21.926H0.287582V21.9086H0.278867V21.8911H0.270152V21.8737H0.261438V21.8563H0.252723V21.8388H0.244009V21.8214H0.235294V21.804H0.226579V21.7865H0.217865V21.7691H0.20915V21.7517H0.200436V21.7343H0.191721V21.7081H0.183007V21.6907H0.174292V21.6645H0.165577V21.6471H0.156863V21.621H0.148148V21.5948H0.139434V21.5687H0.130719V21.5513H0.122004V21.5251H0.11329V21.499H0.104575V21.4728H0.0958606V21.438H0.087146V21.4031H0.0784314V21.3682H0.0697168V21.3421H0.0610022V21.3072H0.0522876V21.2724H0.043573V21.2201H0.0348584V21.1678H0.0261438V21.1068H0.0174292V21.0545H0.0087146V20.9674H0V2.19613H0.0087146V2.10899H0.0174292V2.04799H0.0261438V1.98698H0.0348584V1.9347H0.043573V1.88241H0.0522876V1.85627H0.0610022V1.82141H0.0697168V1.78655H0.0784314V1.75169H0.087146V1.71683H0.0958606V1.68197H0.104575V1.65583H0.11329V1.62969H0.122004V1.61226H0.130719V1.58611H0.139434V1.55997H0.148148V1.53382H0.156863V1.5164H0.165577V1.49025H0.174292V1.46411H0.183007V1.44668H0.191721V1.42925H0.200436V1.41182H0.20915V1.39439H0.217865V1.36825H0.226579V1.35082H0.235294V1.33339H0.244009V1.31596H0.252723V1.29853H0.261438V1.2811H0.270152V1.26367H0.278867V1.24624H0.287582V1.22882H0.296296V1.2201H0.305011V1.20267H0.313725V1.18524H0.32244V1.17653H0.331155V1.1591H0.339869V1.14167H0.348584V1.13295H0.357298V1.11552H0.366013V1.09809H0.374728V1.08938H0.383442V1.07195H0.392157V1.06324H0.400871V1.04581H0.409586V1.03709H0.418301V1.01966H0.427015V1.01095H0.43573V1.00224H0.444444V0.984806H0.453159V0.976091H0.461874V0.967377H0.470588V0.949947H0.479303V0.941233H0.488017V0.932518H0.496732V0.915089H0.505447V0.906374H0.514161V0.897659H0.522876V0.88023H0.53159V0.871515H0.540305V0.862801H0.54902V0.854088H0.557734V0.836658H0.566449V0.827944H0.575163V0.819229H0.583878V0.810514H0.592593V0.8018H0.601307V0.793085H0.610022V0.78437H0.618736V0.775656H0.627451V0.766941H0.636165V0.758226H0.64488V0.740797H0.653595V0.732082H0.662309V0.723368H0.671024V0.714653H0.679738V0.705938H0.688453V0.697224H0.697168V0.688509H0.705882V0.679794H0.714597V0.67108H0.723311V0.662365H0.732026V0.65365H0.740741V0.644938H0.75817V0.636223H0.766884V0.627508H0.775599V0.618793H0.784314V0.610079H0.793028V0.601364H0.801743V0.592649H0.810457V0.583935H0.819172V0.57522H0.827887V0.566505H0.836601V0.557791H0.85403V0.549076H0.862745V0.540361H0.87146V0.531647H0.880174V0.522932H0.897603V0.514217H0.906318V0.505503H0.915033V0.496788H0.932462V0.488073H0.941176V0.479359H0.949891V0.470644H0.96732V0.461929H0.976035V0.453215H0.984749V0.4445H1.00218V0.435787H1.01089V0.427073H1.01961V0.418358H1.03704V0.409643H1.04575V0.400928H1.05447V0.392214H1.0719V0.383499H1.08932V0.374784H1.09804V0.36607H1.11547V0.357355H1.1329V0.34864H1.14161V0.339926H1.15904V0.331211H1.17647V0.322496H1.18519V0.313782H1.20261V0.305067H1.22004V0.296352H1.22876V0.287638H1.24619V0.278923H1.26362V0.270208H1.28105V0.261494H1.29847V0.252779H1.3159V0.244064H1.33333V0.23535H1.35076V0.226637H1.36819V0.217922H1.38562V0.209208H1.41176V0.200493H1.42919V0.191778H1.44662V0.183064H1.46405V0.174349H1.4902V0.165634H1.51634V0.156919H1.53377V0.148205H1.55991V0.13949H1.58606V0.130775H1.60349V0.122061H1.62963V0.113346H1.65577V0.104631H1.68192V0.0959167H1.71678V0.0872021H1.75163V0.0784874H1.78649V0.0697727H1.81264V0.061058H1.84749V0.0523434H1.88235V0.0436287H1.92593V0.034914H1.98693V0.0261993H2.04793V0.0174866H2.10022V0.0087719H2.17865V5.72205e-05H20.976V0.0087719H21.0545V0.0174866H21.1155V0.0261993H21.1678V0.034914H21.2288V0.0436287H21.2723V0.0523434H21.3072V0.061058H21.342V0.0697727H21.3769V0.0784874H21.4118V0.0872021H21.4466V0.0959167H21.4728V0.104631H21.4989V0.113346H21.5251V0.122061H21.5512V0.130775H21.5773V0.13949H21.5948V0.148205H21.6209V0.156919H21.6471V0.165634H21.6732V0.174349H21.6906V0.183064H21.7168V0.191778H21.7342V0.200493H21.7516V0.209208H21.7691V0.217922H21.7865V0.226637H21.8039V0.23535H21.8213V0.244064H21.8388V0.252779H21.8562V0.261494H21.8736V0.270208H21.8911V0.278923H21.9172V0.287638H21.9259V0.296352H21.9434V0.305067H21.9521V0.313782H21.9695V0.322496H21.9869V0.331211H21.9956V0.339926H22.0131V0.34864H22.0305V0.357355H22.0392V0.36607H22.0566V0.374784H22.0741V0.383499H22.0828V0.392214H22.1002V0.400928H22.1089V0.409643H22.1264V0.418358H22.1351V0.427073H22.1525V0.435787H22.1612V0.4445H22.1699V0.453215H22.1874V0.461929H22.1961V0.470644H22.2048V0.479359H22.2222V0.488073H22.2309V0.496788H22.2396V0.505503H22.2571V0.514217H22.2658V0.522932H22.2745V0.531647H22.2919V0.540361H22.3007V0.549076H22.3094V0.557791H22.3181V0.566505H22.3268V0.57522H22.3355V0.583935H22.3442V0.592649H22.3529V0.601364H22.3617V0.610079H22.3791V0.618793H22.3878V0.627508H22.3965V0.636223H22.4052V0.644938H22.4139V0.65365H22.4227V0.662365H22.4314V0.67108H22.4401V0.679794H22.4488V0.688509H22.4575V0.697224H22.4662V0.705938H22.4749V0.714653H22.4837V0.723368H22.4924V0.732082H22.5011V0.740797H22.5098V0.749512H22.5185V0.758226H22.5272V0.766941H22.5359V0.775656H22.5447V0.793085H22.5534V0.8018H22.5621V0.810514H22.5708V0.819229H22.5795V0.827944H22.5882V0.836658H22.5969V0.845373H22.6057V0.854088H22.6144V0.862801H22.6231V0.88023H22.6318V0.888945H22.6405V0.897659H22.6492V0.915089H22.6579V0.923803H22.6667V0.932518H22.6754V0.949947H22.6841V0.958662H22.6928V0.967377H22.7015V0.984806H22.7102V0.993521H22.719V1.00224H22.7277V1.01966H22.7364V1.02838H22.7451V1.03709H22.7538V1.05452H22.7625V1.07195H22.7712V1.08067H22.78V1.09809H22.7887V1.10681H22.7974V1.12424H22.8061V1.14167H22.8148V1.15038H22.8235V1.16781H22.8322V1.18524H22.841V1.19396H22.8497V1.21139H22.8584V1.22882H22.8671V1.23753H22.8758V1.25496H22.8845V1.27239H22.8932V1.28982H22.902V1.30725H22.9107V1.33339H22.9194V1.35082H22.9281V1.36825H22.9368V1.38568H22.9455V1.40311H22.9542V1.42054H22.963V1.43797H22.9717V1.45539H22.9804V1.48154H22.9891V1.50768H22.9978V1.52511H23.0065V1.55125H23.0152V1.5774H23.024V1.60354H23.0327V1.62097H23.0414V1.64712H23.0501V1.67326H23.0588V1.70812H23.0675V1.73426H23.0763V1.76912H23.085V1.80398H23.0937V1.83884H23.1024V1.8737H23.1111V1.90855H23.1198V1.96955H23.1285V2.02184H23.1373V2.08285H23.146V2.14385H23.1547V2.27457H23.1634V20.8889H23.1547V21.0109H23.146V21.0719H23.1373V21.133H23.1285V21.1852H23.1198V21.2462H23.1111V21.2811H23.1024V21.316H23.0937V21.3508H23.085V21.3857H23.0763V21.4205H23.0675V21.4554H23.0588V21.4902H23.0501V21.5077H23.0414V21.5338H23.0327V21.56H23.024V21.5774H23.0152V21.6035H23.0065V21.6297H22.9978V21.6558H22.9891V21.6733H22.9804V21.6994H22.9717V21.7168H22.963V21.7343H22.9542V21.7517H22.9455V21.7778H22.9368V21.7953H22.9281V21.8127H22.9194V21.8301H22.9107V21.8475H22.902V21.865H22.8932V21.8824H22.8845V21.8998H22.8758V21.9173H22.8671V21.9347H22.8584V21.9434H22.8497V21.9608H22.841V21.9783H22.8322V21.987H22.8235V22.0044H22.8148V22.0131H22.8061V22.0306H22.7974V22.048H22.7887V22.0567H22.78V22.0741H22.7712V22.0916H22.7625V22.1003H22.7538V22.1177H22.7451V22.1264H22.7364V22.1438H22.7277V22.1526H22.719V22.1613H22.7102V22.1787H22.7015V22.1874H22.6928V22.1961H22.6841V22.2136H22.6754V22.2223H22.6667V22.231H22.6579V22.2484H22.6492V22.2571H22.6405V22.2658H22.6318V22.2833H22.6231V22.292H22.6144V22.3007H22.6057V22.3094H22.5969V22.3181H22.5882V22.3269H22.5795V22.3356H22.5708V22.353H22.5621V22.3617H22.5534V22.3704H22.5447V22.3791H22.5359V22.3879H22.5272V22.3966H22.5185V22.4053H22.5098V22.414H22.5011V22.4227H22.4924V22.4314H22.4837V22.4489H22.4749V22.4576H22.4662V22.4663H22.4575V22.475H22.4488V22.4837H22.4314V22.4924H22.4227V22.5011H22.4139V22.5099H22.4052V22.5186H22.3965V22.5273H22.3878V22.536H22.3791V22.5447H22.3704V22.5534H22.3617V22.5621H22.3529V22.5709H22.3355V22.5796H22.3268V22.5883H22.3181V22.597H22.3094V22.6057H22.3007V22.6144H22.2919V22.6231H22.2832V22.6319H22.2658V22.6406H22.2571V22.6493H22.2484V22.658H22.2309V22.6667H22.2222V22.6754H22.2135V22.6841H22.1961V22.6929H22.1874V22.7016H22.1699V22.7103H22.1612V22.719H22.1525V22.7277H22.1351V22.7364H22.1264V22.7452H22.1176V22.7539H22.1002V22.7626H22.0915V22.7713H22.0741V22.78H22.0566V22.7887H22.0479V22.7974H22.0305V22.8062H22.0131V22.8149H22.0044V22.8236H21.9869V22.8323H21.9782V22.841H21.9608V22.8497H21.9434V22.8584H21.9346V22.8672H21.9172V22.8759H21.8998V22.8846H21.8824V22.8933H21.8649V22.902H21.8475V22.9107H21.8301V22.9194H21.8126V22.9282H21.7865V22.9369H21.7691V22.9456H21.7516V22.9543H21.7342V22.963H21.7168V22.9717H21.6993V22.9804H21.6732V22.9892H21.6558V22.9979H21.6296V23.0066H21.6035V23.0153H21.5773V23.024H21.5599V23.0327H21.5338V23.0414H21.5076V23.0502H21.4815V23.0589H21.4466V23.0676H21.4205V23.0763H21.3856V23.085H21.3508V23.0937H21.3159V23.1024H21.281V23.1112H21.2375V23.1199H21.1852V23.1286H21.1242V23.1373H21.0719V23.146H21.0022V23.1547H20.8802V23.1635" fill="url(#paint2_radial_2006_641)"/>
<path d="M27.1285 23.1635V23.1547H26.9978V23.146H26.9281V23.1373H26.8758V23.1286H26.8148V23.1199H26.7625V23.1112H26.7189V23.1024H26.684V23.0937H26.6492V23.085H26.6143V23.0763H26.5795V23.0676H26.5533V23.0589H26.5185V23.0502H26.4923V23.0414H26.4662V23.0327H26.4487V23.024H26.4226V23.0153H26.3965V23.0066H26.3703V22.9979H26.3529V22.9892H26.3267V22.9804H26.3006V22.9717H26.2832V22.963H26.2657V22.9543H26.2483V22.9456H26.2309V22.9369H26.2135V22.9282H26.196V22.9194H26.1699V22.9107H26.1525V22.902H26.135V22.8933H26.1176V22.8846H26.1002V22.8759H26.0827V22.8672H26.074V22.8584H26.0566V22.8497H26.0392V22.841H26.0304V22.8323H26.013V22.8236H25.9956V22.8149H25.9869V22.8062H25.9694V22.7974H25.952V22.7887H25.9433V22.78H25.9259V22.7713H25.9084V22.7626H25.8997V22.7539H25.8823V22.7452H25.8736V22.7364H25.8649V22.7277H25.8474V22.719H25.8387V22.7103H25.83V22.7016H25.8126V22.6929H25.8039V22.6841H25.7952V22.6754H25.7777V22.6667H25.769V22.658H25.7603V22.6493H25.7429V22.6406H25.7342V22.6319H25.7254V22.6231H25.708V22.6144H25.6993V22.6057H25.6906V22.597H25.6819V22.5883H25.6731V22.5796H25.6644V22.5709H25.6557V22.5621H25.6383V22.5534H25.6296V22.5447H25.6209V22.536H25.6121V22.5273H25.6034V22.5186H25.5947V22.5099H25.586V22.5011H25.5773V22.4924H25.5686V22.4837H25.5599V22.475H25.5424V22.4663H25.5337V22.4576H25.525V22.4401H25.5163V22.4314H25.5076V22.4227H25.4989V22.414H25.4901V22.4053H25.4814V22.3966H25.4727V22.3879H25.464V22.3791H25.4553V22.3704H25.4466V22.3617H25.4379V22.3443H25.4291V22.3356H25.4204V22.3269H25.4117V22.3181H25.403V22.3094H25.3943V22.3007H25.3856V22.292H25.3769V22.2746H25.3681V22.2658H25.3594V22.2571H25.3507V22.2397H25.342V22.231H25.3333V22.2223H25.3246V22.2048H25.3159V22.1961H25.3071V22.1874H25.2984V22.17H25.2897V22.1613H25.281V22.1526H25.2723V22.1351H25.2636V22.1264H25.2548V22.1177H25.2461V22.1003H25.2374V22.0916H25.2287V22.0741H25.22V22.0567H25.2113V22.048H25.2026V22.0306H25.1938V22.0131H25.1851V22.0044H25.1764V21.987H25.1677V21.9696H25.159V21.9608H25.1503V21.9434H25.1416V21.926H25.1328V21.9173H25.1241V21.8998H25.1154V21.8824H25.1067V21.865H25.098V21.8475H25.0893V21.8301H25.0806V21.8127H25.0718V21.7865H25.0631V21.7691H25.0544V21.7517H25.0457V21.7343H25.037V21.7168H25.0283V21.6994H25.0196V21.6733H25.0108V21.6471H25.0021V21.6297H24.9934V21.6035H24.9847V21.5774H24.976V21.56H24.9673V21.5338H24.9586V21.5077H24.9498V21.4815H24.9411V21.4467H24.9324V21.4205H24.9237V21.3857H24.915V21.3508H24.9063V21.316H24.8976V21.2811H24.8888V21.2375H24.8801V21.1852H24.8714V21.1242H24.8627V21.0719H24.854V21.0022H24.8453V20.8802H24.8365V2.28328H24.8453V2.15256H24.854V2.08285H24.8627V2.03056H24.8714V1.96955H24.8801V1.91727H24.8888V1.8737H24.8976V1.83884H24.9063V1.80398H24.915V1.77783H24.9237V1.74298H24.9324V1.70812H24.9411V1.67326H24.9498V1.64712H24.9586V1.62097H24.9673V1.60354H24.976V1.5774H24.9847V1.55125H24.9934V1.53382H25.0021V1.50768H25.0108V1.48154H25.0196V1.45539H25.0283V1.43797H25.037V1.42054H25.0457V1.40311H25.0544V1.38568H25.0631V1.36825H25.0718V1.35082H25.0806V1.33339H25.0893V1.31596H25.098V1.28982H25.1067V1.27239H25.1154V1.25496H25.1241V1.23753H25.1328V1.22882H25.1416V1.21139H25.1503V1.19396H25.159V1.18524H25.1677V1.16781H25.1764V1.1591H25.1851V1.14167H25.1938V1.12424H25.2026V1.11552H25.2113V1.09809H25.22V1.08067H25.2287V1.07195H25.2374V1.05452H25.2461V1.03709H25.2548V1.02838H25.2636V1.01966H25.2723V1.00224H25.281V0.993521H25.2897V0.984806H25.2984V0.967377H25.3071V0.958662H25.3159V0.949947H25.3246V0.932518H25.3333V0.923803H25.342V0.915089H25.3507V0.897659H25.3594V0.888945H25.3681V0.88023H25.3769V0.862801H25.3856V0.854088H25.3943V0.845373H25.403V0.836658H25.4117V0.827944H25.4204V0.819229H25.4291V0.810514H25.4379V0.8018H25.4466V0.793085H25.4553V0.775656H25.464V0.766941H25.4727V0.758226H25.4814V0.749512H25.4901V0.740797H25.4989V0.732082H25.5076V0.723368H25.5163V0.714653H25.525V0.705938H25.5337V0.697224H25.5424V0.688509H25.5511V0.679794H25.5599V0.67108H25.5686V0.662365H25.5773V0.65365H25.586V0.644938H25.5947V0.636223H25.6034V0.627508H25.6121V0.618793H25.6296V0.610079H25.6383V0.601364H25.647V0.592649H25.6557V0.583935H25.6644V0.57522H25.6731V0.566505H25.6819V0.557791H25.6906V0.549076H25.6993V0.540361H25.7167V0.531647H25.7254V0.522932H25.7342V0.514217H25.7516V0.505503H25.7603V0.496788H25.769V0.488073H25.7864V0.479359H25.7952V0.470644H25.8039V0.461929H25.8213V0.453215H25.83V0.4445H25.8387V0.435787H25.8562V0.427073H25.8649V0.418358H25.8736V0.409643H25.891V0.400928H25.8997V0.392214H25.9172V0.383499H25.9259V0.374784H25.9433V0.36607H25.9607V0.357355H25.9694V0.34864H25.9869V0.339926H26.0043V0.331211H26.013V0.322496H26.0304V0.313782H26.0479V0.305067H26.0566V0.296352H26.074V0.287638H26.0914V0.278923H26.1089V0.270208H26.1263V0.261494H26.1437V0.252779H26.1612V0.244064H26.1786V0.23535H26.196V0.226637H26.2135V0.217922H26.2309V0.209208H26.2483V0.200493H26.2657V0.191778H26.2832V0.183064H26.3093V0.174349H26.3267V0.165634H26.3529V0.156919H26.379V0.148205H26.4052V0.13949H26.4226V0.130775H26.4487V0.122061H26.4749V0.113346H26.501V0.104631H26.5272V0.0959167H26.5533V0.0872021H26.5882V0.0784874H26.623V0.0697727H26.6579V0.061058H26.6928V0.0523434H26.7276V0.0436287H26.7712V0.034914H26.8322V0.0261993H26.8845V0.0174866H26.9455V0.0087719H27.0239V5.72205e-05H45.8213V0.0087719H45.8997V0.0174866H45.9607V0.0261993H46.013V0.034914H46.074V0.0436287H46.1176V0.0523434H46.1524V0.061058H46.1873V0.0697727H46.2222V0.0784874H46.2483V0.0872021H46.2832V0.0959167H46.318V0.104631H46.3442V0.113346H46.3703V0.122061H46.3965V0.130775H46.4139V0.13949H46.44V0.148205H46.4662V0.156919H46.4923V0.165634H46.5097V0.174349H46.5359V0.183064H46.5533V0.191778H46.5707V0.200493H46.5969V0.209208H46.6143V0.217922H46.6318V0.226637H46.6492V0.23535H46.6666V0.244064H46.684V0.252779H46.7015V0.261494H46.7189V0.270208H46.7363V0.278923H46.7538V0.287638H46.7712V0.296352H46.7886V0.305067H46.7973V0.313782H46.8148V0.322496H46.8235V0.331211H46.8409V0.339926H46.8583V0.34864H46.867V0.357355H46.8845V0.36607H46.9019V0.374784H46.9106V0.383499H46.928V0.392214H46.9455V0.400928H46.9542V0.409643H46.9716V0.418358H46.9803V0.427073H46.989V0.435787H47.0065V0.4445H47.0152V0.453215H47.0239V0.461929H47.0413V0.470644H47.0501V0.479359H47.0588V0.488073H47.0762V0.496788H47.0849V0.505503H47.0936V0.514217H47.1111V0.522932H47.1198V0.531647H47.1285V0.540361H47.1372V0.549076H47.1546V0.557791H47.1633V0.566505H47.1721V0.57522H47.1808V0.583935H47.1895V0.592649H47.1982V0.601364H47.2069V0.610079H47.2156V0.618793H47.2243V0.627508H47.2331V0.636223H47.2505V0.644938H47.2592V0.65365H47.2679V0.662365H47.2766V0.67108H47.2853V0.679794H47.2941V0.688509H47.3028V0.697224H47.3115V0.705938H47.3202V0.714653H47.3289V0.723368H47.3376V0.732082H47.3463V0.740797H47.3551V0.749512H47.3638V0.766941H47.3725V0.775656H47.3812V0.78437H47.3899V0.793085H47.3986V0.8018H47.4074V0.810514H47.4161V0.819229H47.4248V0.827944H47.4335V0.836658H47.4422V0.845373H47.4509V0.862801H47.4596V0.871515H47.4684V0.88023H47.4771V0.888945H47.4858V0.906374H47.4945V0.915089H47.5032V0.923803H47.5119V0.941233H47.5206V0.949947H47.5294V0.958662H47.5381V0.976091H47.5468V0.984806H47.5555V0.993521H47.5642V1.01095H47.5729V1.01966H47.5816V1.02838H47.5904V1.04581H47.5991V1.05452H47.6078V1.07195H47.6165V1.08938H47.6252V1.09809H47.6339V1.11552H47.6426V1.13295H47.6514V1.14167H47.6601V1.1591H47.6688V1.17653H47.6775V1.18524H47.6862V1.20267H47.6949V1.21139H47.7036V1.22882H47.7124V1.24624H47.7211V1.26367H47.7298V1.2811H47.7385V1.29853H47.7472V1.31596H47.7559V1.33339H47.7647V1.35082H47.7734V1.36825H47.7821V1.38568H47.7908V1.40311H47.7995V1.42925H47.8082V1.44668H47.8169V1.46411H47.8257V1.49025H47.8344V1.50768H47.8431V1.53382H47.8518V1.55997H47.8605V1.58611H47.8692V1.60354H47.8779V1.62969H47.8867V1.65583H47.8954V1.68197H47.9041V1.71683H47.9128V1.75169H47.9215V1.77783H47.9302V1.81269H47.9389V1.84755H47.9477V1.88241H47.9564V1.92598H47.9651V1.98698H47.9738V2.03927H47.9825V2.10027H47.9912V2.17871H47.9999V20.9761H47.9912V21.0545H47.9825V21.1155H47.9738V21.1678H47.9651V21.2288H47.9564V21.2724H47.9477V21.3072H47.9389V21.3421H47.9302V21.377H47.9215V21.4118H47.9128V21.4467H47.9041V21.4728H47.8954V21.499H47.8867V21.5251H47.8779V21.5513H47.8692V21.5774H47.8605V21.5948H47.8518V21.621H47.8431V21.6471H47.8344V21.6733H47.8257V21.6907H47.8169V21.7168H47.8082V21.7343H47.7995V21.7517H47.7908V21.7691H47.7821V21.7865H47.7734V21.804H47.7647V21.8214H47.7559V21.8388H47.7472V21.8563H47.7385V21.8737H47.7298V21.8911H47.7211V21.9086H47.7124V21.926H47.7036V21.9434H47.6949V21.9521H47.6862V21.9696H47.6775V21.987H47.6688V21.9957H47.6601V22.0131H47.6514V22.0306H47.6426V22.0393H47.6339V22.0567H47.6252V22.0741H47.6165V22.0828H47.6078V22.1003H47.5991V22.109H47.5904V22.1264H47.5816V22.1351H47.5729V22.1438H47.5642V22.1613H47.5555V22.17H47.5468V22.1787H47.5381V22.1961H47.5294V22.2048H47.5206V22.2136H47.5119V22.231H47.5032V22.2397H47.4945V22.2484H47.4858V22.2658H47.4771V22.2746H47.4684V22.2833H47.4596V22.3007H47.4509V22.3094H47.4422V22.3181H47.4335V22.3269H47.4248V22.3356H47.4161V22.3443H47.4074V22.353H47.3986V22.3617H47.3899V22.3704H47.3812V22.3879H47.3725V22.3966H47.3638V22.4053H47.3551V22.414H47.3463V22.4227H47.3376V22.4314H47.3289V22.4401H47.3202V22.4489H47.3115V22.4576H47.3028V22.4663H47.2941V22.475H47.2853V22.4837H47.2766V22.4924H47.2679V22.5011H47.2592V22.5099H47.2505V22.5186H47.2418V22.5273H47.2331V22.536H47.2243V22.5447H47.2069V22.5534H47.1982V22.5621H47.1895V22.5709H47.1808V22.5796H47.1721V22.5883H47.1633V22.597H47.1546V22.6057H47.1459V22.6144H47.1372V22.6231H47.1198V22.6319H47.1111V22.6406H47.1023V22.6493H47.0849V22.658H47.0762V22.6667H47.0675V22.6754H47.0501V22.6841H47.0413V22.6929H47.0326V22.7016H47.0152V22.7103H47.0065V22.719H46.9978V22.7277H46.9803V22.7364H46.9716V22.7452H46.9542V22.7539H46.9455V22.7626H46.928V22.7713H46.9193V22.78H46.9019V22.7887H46.8845V22.7974H46.8758V22.8062H46.8583V22.8149H46.8409V22.8236H46.8322V22.8323H46.8148V22.841H46.806V22.8497H46.7886V22.8584H46.7712V22.8672H46.7625V22.8759H46.745V22.8846H46.7276V22.8933H46.7015V22.902H46.684V22.9107H46.6666V22.9194H46.6492V22.9282H46.6318V22.9369H46.6143V22.9456H46.5969V22.9543H46.5795V22.963H46.562V22.9717H46.5446V22.9804H46.5185V22.9892H46.4923V22.9979H46.4662V23.0066H46.4487V23.0153H46.4226V23.024H46.3965V23.0327H46.379V23.0414H46.3529V23.0502H46.3267V23.0589H46.2919V23.0676H46.257V23.0763H46.2222V23.085H46.1873V23.0937H46.1612V23.1024H46.1263V23.1112H46.0827V23.1199H46.0304V23.1286H45.9694V23.1373H45.9084V23.146H45.8474V23.1547H45.7167V23.1635" fill="url(#paint3_radial_2006_641)"/>
<path d="M15.3284 17.0308C15.0567 17.4379 14.4335 17.0914 14.6478 16.6514C14.9738 15.9827 15.1929 15.1479 15.1231 14.1442C15.0456 13.0308 14.8176 11.9671 14.5591 11.0647C14.4665 10.7413 14.9196 10.565 15.0707 10.8656C15.5812 11.8816 16.0341 13.0708 16.073 14.1442C16.1154 15.3101 15.8276 16.2828 15.3284 17.0308ZM14.2626 18.2257C14.0144 18.2257 13.8132 18.0246 13.8132 17.7765C13.8132 17.5284 14.0144 17.3271 14.2626 17.3271C14.5107 17.3271 14.7118 17.5284 14.7118 17.7765C14.7118 18.0246 14.5107 18.2257 14.2626 18.2257ZM16.8897 12.4396C16.8191 12.2194 16.7211 11.9884 16.6019 11.7503C16.591 11.7286 16.5804 11.7068 16.5692 11.6853C16.5506 11.6491 16.5313 11.6125 16.5116 11.5759C16.5113 11.5753 16.5109 11.5748 16.5107 11.5743C15.1594 9.05637 11.5791 3.68226 11.5791 3.68226C11.5791 3.68226 7.99882 9.05629 6.64755 11.5741C6.64605 11.5769 6.64462 11.5796 6.64319 11.5824C6.62477 11.6167 6.60642 11.6511 6.58889 11.6851C6.57766 11.7071 6.56683 11.7291 6.5558 11.7513C6.43673 11.989 6.33896 12.2197 6.26839 12.4396C6.07531 13.0069 5.97046 13.615 5.97046 14.2477C5.97046 17.3452 8.48156 19.8562 11.5791 19.8562C14.6766 19.8562 17.1877 17.3452 17.1877 14.2477C17.1877 13.615 17.0828 13.0069 16.8897 12.4396Z" fill="white"/>
<path d="M36.6503 28.615C36.6503 28.615 37.319 31.2412 33.518 35.1829C29.717 39.1246 31.6175 44.6501 35.7 44.6501C35.7 44.6501 32.2158 41.0603 34.7498 38.2448C37.2838 35.4292 37.0374 33.3317 37.0374 33.3317C37.0374 33.3317 38.5991 36.485 37.0439 38.4208C35.4888 40.3565 35.9463 43.3479 37.7333 44.6501C37.7333 44.6501 43.9707 43.2776 40.1345 35.3588C40.1345 35.3588 40.1811 37.1526 38.4452 38.28C38.4452 38.28 41.1903 34.8092 36.6503 28.615Z" fill="white"/>
<path d="M42.4626 8.29489H40.7708V5.51581H39.4946V8.29489H33.3487V5.51581H32.0726V8.29489H30.3807C30.0538 8.29489 29.7888 8.5599 29.7888 8.88679V9.71799C29.7888 10.045 30.0538 10.31 30.3807 10.31C30.9255 10.31 31.3672 10.7516 31.3672 11.2965V14.1469C31.3672 15.6401 32.5777 16.8505 34.0708 16.8505H34.1715V17.1275C34.1715 17.4985 34.4722 17.7992 34.8432 17.7992H35.4645V19.8562H37.3789V17.7992H38.0001C38.3711 17.7992 38.6718 17.4985 38.6718 17.1275V16.8505H38.7725C40.2656 16.8505 41.4761 15.6401 41.4761 14.1469V11.2965C41.4761 10.7516 41.9178 10.31 42.4626 10.31C42.7895 10.31 43.0545 10.045 43.0545 9.71799V8.88679C43.0545 8.5599 42.7895 8.29489 42.4626 8.29489Z" fill="white"/>
<path d="M40.7708 4.3202C40.7708 3.96787 40.485 3.68221 40.1326 3.68221C39.7803 3.68221 39.4945 3.96787 39.4945 4.3202V4.95837H40.7708V4.3202Z" fill="white"/>
<path d="M33.3487 4.3202C33.3487 3.96787 33.0629 3.68221 32.7106 3.68221C32.3583 3.68221 32.0725 3.96787 32.0725 4.3202V4.95837H33.3487V4.3202Z" fill="white"/>
<path d="M17.8435 42.7817C17.8435 42.861 17.7792 42.9255 17.6997 42.9255C17.6204 42.9255 17.556 42.861 17.556 42.7817V30.0603C17.556 29.9809 17.6204 29.9165 17.6997 29.9165C17.7792 29.9165 17.8435 29.9809 17.8435 30.0603V42.7817ZM15.7298 41.1967V31.6453H16.603V41.1967H15.7298ZM14.7768 42.7817C14.7768 42.861 14.7125 42.9255 14.6331 42.9255C14.5536 42.9255 14.4893 42.861 14.4893 42.7817V30.0603C14.4893 29.9809 14.5536 29.9165 14.6331 29.9165C14.7125 29.9165 14.7768 29.9809 14.7768 30.0603V42.7817ZM12.6632 41.1967V31.6453H13.5363V41.1967H12.6632ZM11.7101 42.7817C11.7101 42.861 11.6458 42.9255 11.5664 42.9255C11.487 42.9255 11.4226 42.861 11.4226 42.7817V30.0603C11.4226 29.9809 11.487 29.9165 11.5664 29.9165C11.6458 29.9165 11.7101 29.9809 11.7101 30.0603V42.7817ZM9.59649 41.1967V31.6453H10.4696V41.1967H9.59649ZM8.64346 42.7817C8.64346 42.861 8.57909 42.9255 8.49974 42.9255C8.42032 42.9255 8.35595 42.861 8.35595 42.7817V30.0603C8.35595 29.9809 8.42032 29.9165 8.49974 29.9165C8.57909 29.9165 8.64346 29.9809 8.64346 30.0603V42.7817ZM6.5298 41.1967V31.6453H7.40296V41.1967H6.5298ZM5.5768 42.7817C5.5768 42.861 5.51244 42.9255 5.43301 42.9255C5.35366 42.9255 5.28929 42.861 5.28929 42.7817V30.0603C5.28929 29.9809 5.35366 29.9165 5.43301 29.9165C5.51244 29.9165 5.5768 29.9809 5.5768 30.0603V42.7817ZM18.2321 28.9062C18.2321 28.9062 18.115 28.7252 17.6997 28.7252C17.2844 28.7252 17.1673 28.9062 17.1673 28.9062L16.7242 29.5416C16.6453 29.6547 16.603 29.7894 16.603 29.9273V30.1971H15.7298V29.9273C15.7298 29.7894 15.6876 29.6547 15.6086 29.5416L15.1655 28.9062C15.1655 28.9062 15.0483 28.7252 14.6331 28.7252C14.2178 28.7252 14.1006 28.9062 14.1006 28.9062L13.6575 29.5416C13.5786 29.6547 13.5363 29.7894 13.5363 29.9273V30.1971H12.6632V29.9273C12.6632 29.7894 12.6208 29.6547 12.5419 29.5416L12.0988 28.9062C12.0988 28.9062 11.9817 28.7252 11.5664 28.7252C11.1511 28.7252 11.034 28.9062 11.034 28.9062L10.5908 29.5416C10.512 29.6547 10.4696 29.7894 10.4696 29.9273V30.1971H9.59649V29.9273C9.59649 29.7894 9.55414 29.6547 9.47527 29.5416L9.03213 28.9062C9.03213 28.9062 8.91501 28.7252 8.49974 28.7252C8.08443 28.7252 7.96733 28.9062 7.96733 28.9062L7.52414 29.5416C7.44527 29.6547 7.40296 29.7894 7.40296 29.9273V30.1971H6.5298V29.9273C6.5298 29.7894 6.48748 29.6547 6.40861 29.5416L5.96542 28.9062C5.96542 28.9062 5.84832 28.7252 5.43301 28.7252C5.01778 28.7252 4.90061 28.9062 4.90061 28.9062L4.45749 29.5416C4.37858 29.6547 4.3363 29.7894 4.3363 29.9273V36.421V42.9146C4.3363 43.0526 4.37858 43.1872 4.45749 43.3003L4.90061 43.9358C4.90061 43.9358 5.01778 44.1168 5.43301 44.1168C5.84832 44.1168 5.96542 43.9358 5.96542 43.9358L6.40861 43.3003C6.48748 43.1872 6.5298 43.0526 6.5298 42.9146V42.6448H7.40296V42.9146C7.40296 43.0526 7.44527 43.1872 7.52414 43.3003L7.96733 43.9358C7.96733 43.9358 8.08443 44.1168 8.49974 44.1168C8.91501 44.1168 9.03213 43.9358 9.03213 43.9358L9.47527 43.3003C9.55414 43.1872 9.59649 43.0526 9.59649 42.9146V42.6448H10.4696V42.9146C10.4696 43.0526 10.512 43.1872 10.5908 43.3003L11.034 43.9358C11.034 43.9358 11.1511 44.1168 11.5664 44.1168C11.9817 44.1168 12.0988 43.9358 12.0988 43.9358L12.5419 43.3003C12.6208 43.1872 12.6632 43.0526 12.6632 42.9146V42.6448H13.5363V42.9146C13.5363 43.0526 13.5786 43.1872 13.6575 43.3003L14.1006 43.9358C14.1006 43.9358 14.2178 44.1168 14.6331 44.1168C15.0483 44.1168 15.1655 43.9358 15.1655 43.9358L15.6086 43.3003C15.6876 43.1872 15.7298 43.0526 15.7298 42.9146V42.6448H16.603V42.9146C16.603 43.0526 16.6453 43.1872 16.7242 43.3003L17.1673 43.9358C17.1673 43.9358 17.2844 44.1168 17.6997 44.1168C18.115 44.1168 18.2321 43.9358 18.2321 43.9358L18.6753 43.3003C18.7542 43.1872 18.7965 43.0526 18.7965 42.9146V36.421V29.9273C18.7965 29.7894 18.7542 29.6547 18.6753 29.5416L18.2321 28.9062Z" fill="white"/>
<path d="M2.33447 30.7168V31.1255C2.33447 31.2539 2.42615 31.364 2.55241 31.3872L3.95304 31.6453V30.9212V30.197L2.55241 30.4551C2.42615 30.4784 2.33447 30.5884 2.33447 30.7168Z" fill="white"/>
<path d="M3.2395 41.8036V42.0378C3.2395 42.3731 3.51126 42.6448 3.84643 42.6448H3.95294V41.1967H3.84643C3.51126 41.1967 3.2395 41.4684 3.2395 41.8036Z" fill="white"/>
<path d="M19.2863 41.1967H19.1798V42.6448H19.2863C19.5585 42.6448 19.7887 42.4656 19.8657 42.2188H20.3485V41.6225H19.8657C19.7887 41.3757 19.5585 41.1967 19.2863 41.1967Z" fill="white"/>
<path d="M20.4043 28.7252V29.6568C20.4043 30.0501 20.1688 30.3879 19.8315 30.5388C19.733 30.3367 19.5262 30.1971 19.2863 30.1971H19.1798V31.6453H19.2863C19.5817 31.6453 19.8276 31.434 19.8819 31.1544C20.5285 30.9631 21.0007 30.3654 21.0007 29.6568V28.7252H20.4043Z" fill="white"/>
<path d="M71.4187 13.7354V34.2104H67.2V13.7354H71.4187ZM83.4843 13.7354L75.6375 25.7588H70.4765L69.9421 22.0041H73.3875L78.3656 13.7354H83.4843ZM79.139 34.2104L73.4015 25.0557L76.3265 22.0463L84.1453 34.2104H79.139Z" fill="white"/>
<path d="M85.0869 26.7572V26.4619C85.0869 25.3463 85.2463 24.3197 85.565 23.3822C85.8838 22.4354 86.3478 21.615 86.9572 20.9213C87.5666 20.2275 88.3166 19.6885 89.2072 19.3041C90.0978 18.9104 91.1197 18.7135 92.2728 18.7135C93.426 18.7135 94.4525 18.9104 95.3525 19.3041C96.2525 19.6885 97.0072 20.2275 97.6166 20.9213C98.2353 21.615 98.7041 22.4354 99.0228 23.3822C99.3416 24.3197 99.5009 25.3463 99.5009 26.4619V26.7572C99.5009 27.8635 99.3416 28.89 99.0228 29.8369C98.7041 30.7744 98.2353 31.5947 97.6166 32.2979C97.0072 32.9916 96.2572 33.5307 95.3666 33.915C94.4759 34.2994 93.4541 34.4916 92.3009 34.4916C91.1478 34.4916 90.1213 34.2994 89.2213 33.915C88.3306 33.5307 87.5759 32.9916 86.9572 32.2979C86.3478 31.5947 85.8838 30.7744 85.565 29.8369C85.2463 28.89 85.0869 27.8635 85.0869 26.7572ZM89.1369 26.4619V26.7572C89.1369 27.3947 89.1931 27.99 89.3056 28.5432C89.4181 29.0963 89.5963 29.5838 89.84 30.0057C90.0931 30.4182 90.4213 30.7416 90.8244 30.976C91.2275 31.2104 91.7197 31.3275 92.3009 31.3275C92.8634 31.3275 93.3463 31.2104 93.7494 30.976C94.1525 30.7416 94.476 30.4182 94.7197 30.0057C94.9634 29.5838 95.1416 29.0963 95.2541 28.5432C95.3759 27.99 95.4369 27.3947 95.4369 26.7572V26.4619C95.4369 25.8432 95.3759 25.2619 95.2541 24.7182C95.1416 24.165 94.9588 23.6775 94.7056 23.2557C94.4619 22.8244 94.1385 22.4869 93.7353 22.2432C93.3322 21.9994 92.8447 21.8775 92.2728 21.8775C91.701 21.8775 91.2134 21.9994 90.8103 22.2432C90.4166 22.4869 90.0931 22.8244 89.84 23.2557C89.5963 23.6775 89.4181 24.165 89.3056 24.7182C89.1931 25.2619 89.1369 25.8432 89.1369 26.4619Z" fill="white"/>
<path d="M111.819 29.5557L115.813 18.9947H119.118L113.183 34.2104H110.455L104.549 18.9947H107.854L111.819 29.5557ZM106.883 18.9947V34.2104H102.833V18.9947H106.883ZM116.854 34.2104V18.9947H120.904V34.2104H116.854Z" fill="white"/>
<path d="M134.276 29.5557L138.27 18.9947H141.575L135.64 34.2104H132.912L127.006 18.9947H130.311L134.276 29.5557ZM129.34 18.9947V34.2104H125.29V18.9947H129.34ZM139.311 34.2104V18.9947H143.361V34.2104H139.311Z" fill="white"/>
<path d="M151.995 32.4947L156.031 18.9947H160.376L154.259 36.5025C154.127 36.8869 153.949 37.2994 153.724 37.74C153.509 38.1807 153.213 38.5979 152.838 38.9916C152.473 39.3947 152.009 39.7229 151.446 39.976C150.893 40.2291 150.213 40.3557 149.407 40.3557C149.023 40.3557 148.709 40.3322 148.465 40.2854C148.221 40.2385 147.931 40.1729 147.593 40.0885V37.1213C147.696 37.1213 147.804 37.1213 147.916 37.1213C148.029 37.1307 148.137 37.1354 148.24 37.1354C148.774 37.1354 149.21 37.0744 149.548 36.9525C149.885 36.8307 150.157 36.6432 150.363 36.39C150.57 36.1463 150.734 35.8275 150.856 35.4338L151.995 32.4947ZM150.307 18.9947L153.612 30.0197L154.188 34.3088L151.432 34.6041L145.962 18.9947H150.307Z" fill="white"/>
<path d="M172.989 25.14V28.29H165.255V25.14H172.989ZM166.605 18.9947V34.2104H162.555V18.9947H166.605ZM175.732 18.9947V34.2104H171.667V18.9947H175.732Z" fill="white"/>
<path d="M187.67 30.7791V24.001C187.67 23.5135 187.59 23.0963 187.431 22.7494C187.272 22.3932 187.023 22.1166 186.686 21.9197C186.358 21.7229 185.931 21.6244 185.406 21.6244C184.956 21.6244 184.567 21.7041 184.239 21.8635C183.911 22.0135 183.658 22.2338 183.479 22.5244C183.301 22.8057 183.212 23.1385 183.212 23.5229H179.162C179.162 22.876 179.312 22.2619 179.612 21.6807C179.912 21.0994 180.348 20.5885 180.92 20.1479C181.492 19.6979 182.172 19.3463 182.959 19.0932C183.756 18.84 184.647 18.7135 185.631 18.7135C186.812 18.7135 187.862 18.9104 188.781 19.3041C189.7 19.6979 190.422 20.2885 190.947 21.076C191.481 21.8635 191.748 22.8479 191.748 24.0291V30.54C191.748 31.3744 191.8 32.0588 191.903 32.5932C192.006 33.1182 192.156 33.5775 192.353 33.9713V34.2104H188.261C188.064 33.7979 187.914 33.2822 187.811 32.6635C187.717 32.0354 187.67 31.4072 187.67 30.7791ZM188.204 24.9432L188.233 27.2354H185.968C185.434 27.2354 184.97 27.2963 184.576 27.4182C184.183 27.54 183.859 27.7135 183.606 27.9385C183.353 28.1541 183.165 28.4072 183.043 28.6979C182.931 28.9885 182.875 29.3072 182.875 29.6541C182.875 30.001 182.954 30.315 183.114 30.5963C183.273 30.8682 183.503 31.0838 183.803 31.2432C184.103 31.3932 184.454 31.4682 184.858 31.4682C185.467 31.4682 185.997 31.3463 186.447 31.1025C186.897 30.8588 187.243 30.5588 187.487 30.2025C187.74 29.8463 187.872 29.5088 187.881 29.19L188.95 30.9057C188.8 31.29 188.593 31.6885 188.331 32.101C188.078 32.5135 187.754 32.9025 187.361 33.2682C186.967 33.6244 186.493 33.9197 185.94 34.1541C185.387 34.3791 184.731 34.4916 183.972 34.4916C183.006 34.4916 182.129 34.2994 181.342 33.915C180.564 33.5213 179.945 32.9822 179.486 32.2979C179.036 31.6041 178.811 30.8166 178.811 29.9354C178.811 29.1385 178.961 28.4307 179.261 27.8119C179.561 27.1932 180.001 26.6729 180.583 26.251C181.173 25.8197 181.909 25.4963 182.79 25.2807C183.672 25.0557 184.693 24.9432 185.856 24.9432H188.204Z" fill="white"/>
<path d="M205.684 18.9947V22.1729H198.202V18.9947H205.684ZM208.651 18.9947V34.2104H204.601V18.9947H208.651ZM197.19 18.9947H201.169L200.762 26.6729C200.705 27.7697 200.588 28.7354 200.41 29.5697C200.232 30.4041 199.993 31.1166 199.693 31.7072C199.402 32.2979 199.051 32.7807 198.638 33.1557C198.235 33.5213 197.762 33.7885 197.218 33.9572C196.684 34.126 196.093 34.2104 195.446 34.2104H194.209L194.166 31.0182L194.687 30.9619C194.987 30.9338 195.249 30.8494 195.474 30.7088C195.708 30.5588 195.905 30.3479 196.065 30.076C196.233 29.7947 196.374 29.4432 196.487 29.0213C196.599 28.59 196.688 28.0838 196.754 27.5025C196.829 26.9213 196.88 26.251 196.908 25.4916L197.19 18.9947Z" fill="white"/>
<path d="M216.68 18.9947V34.2104H212.63V18.9947H216.68ZM226.566 18.9947L220.013 28.515H215.963L215.47 24.7744H218.156L221.433 18.9947H226.566ZM221.616 34.2104L217.875 27.7838L221.405 25.8291L227.044 34.2104H221.616Z" fill="white"/>
<path d="M237.351 30.7791V24.001C237.351 23.5135 237.271 23.0963 237.112 22.7494C236.953 22.3932 236.704 22.1166 236.367 21.9197C236.039 21.7229 235.612 21.6244 235.087 21.6244C234.637 21.6244 234.248 21.7041 233.92 21.8635C233.592 22.0135 233.339 22.2338 233.16 22.5244C232.982 22.8057 232.893 23.1385 232.893 23.5229H228.843C228.843 22.876 228.993 22.2619 229.293 21.6807C229.593 21.0994 230.029 20.5885 230.601 20.1479C231.173 19.6979 231.853 19.3463 232.64 19.0932C233.437 18.84 234.328 18.7135 235.312 18.7135C236.493 18.7135 237.543 18.9104 238.462 19.3041C239.381 19.6979 240.103 20.2885 240.628 21.076C241.162 21.8635 241.429 22.8479 241.429 24.0291V30.54C241.429 31.3744 241.481 32.0588 241.584 32.5932C241.687 33.1182 241.837 33.5775 242.034 33.9713V34.2104H237.942C237.745 33.7979 237.595 33.2822 237.492 32.6635C237.398 32.0354 237.351 31.4072 237.351 30.7791ZM237.885 24.9432L237.914 27.2354H235.65C235.115 27.2354 234.651 27.2963 234.257 27.4182C233.864 27.54 233.54 27.7135 233.287 27.9385C233.034 28.1541 232.846 28.4072 232.725 28.6979C232.612 28.9885 232.556 29.3072 232.556 29.6541C232.556 30.001 232.635 30.315 232.795 30.5963C232.954 30.8682 233.184 31.0838 233.484 31.2432C233.784 31.3932 234.135 31.4682 234.539 31.4682C235.148 31.4682 235.678 31.3463 236.128 31.1025C236.578 30.8588 236.925 30.5588 237.168 30.2025C237.421 29.8463 237.553 29.5088 237.562 29.19L238.631 30.9057C238.481 31.29 238.275 31.6885 238.012 32.101C237.759 32.5135 237.436 32.9025 237.042 33.2682C236.648 33.6244 236.175 33.9197 235.621 34.1541C235.068 34.3791 234.412 34.4916 233.653 34.4916C232.687 34.4916 231.811 34.2994 231.023 33.915C230.245 33.5213 229.626 32.9822 229.167 32.2979C228.717 31.6041 228.492 30.8166 228.492 29.9354C228.492 29.1385 228.642 28.4307 228.942 27.8119C229.242 27.1932 229.682 26.6729 230.264 26.251C230.854 25.8197 231.59 25.4963 232.471 25.2807C233.353 25.0557 234.375 24.9432 235.537 24.9432H237.885Z" fill="white"/>
<defs>
<radialGradient id="paint0_radial_2006_641" cx="0" cy="0" r="1" gradientUnits="userSpaceOnUse" gradientTransform="translate(11.5791 36.4209) scale(11.5791)">
<stop stop-color="#F6843C"/>
<stop offset="1" stop-color="#F46D18"/>
</radialGradient>
<radialGradient id="paint1_radial_2006_641" cx="0" cy="0" r="1" gradientUnits="userSpaceOnUse" gradientTransform="translate(36.4216 36.4209) scale(11.5791)">
<stop stop-color="#9CC2EA"/>
<stop offset="1" stop-color="#6E8BCF"/>
</radialGradient>
<radialGradient id="paint2_radial_2006_641" cx="0" cy="0" r="1" gradientUnits="userSpaceOnUse" gradientTransform="translate(11.5791 11.5784) scale(11.5791)">
<stop stop-color="#ACDDF3"/>
<stop offset="1" stop-color="#6DB8E8"/>
</radialGradient>
<radialGradient id="paint3_radial_2006_641" cx="0" cy="0" r="1" gradientUnits="userSpaceOnUse" gradientTransform="translate(36.4216 11.5784) scale(11.5791)">
<stop stop-color="#FBC533"/>
<stop offset="1" stop-color="#F8A017"/>
</radialGradient>
</defs>
</svg>
